<!DOCTYPE svg PUBLIC "-//W3C//DTD SVG 1.1//EN" "http://www.w3.org/Graphics/SVG/1.1/DTD/svg11.dtd">
<!-- Uploaded to: SVG Repo, www.svgrepo.com, Transformed by: SVG Repo Mixer Tools -->
<svg fill="#ffffff" height="800px" width="800px" version="1.1" id="Layer_1" xmlns="http://www.w3.org/2000/svg" xmlns:xlink="http://www.w3.org/1999/xlink" viewBox="-51.2 -51.2 614.40 614.40" xml:space="preserve" stroke="#ffffff" stroke-width="15.872">
<g id="SVGRepo_bgCarrier" stroke-width="0"/>
<g id="SVGRepo_tracerCarrier" stroke-linecap="round" stroke-linejoin="round" stroke="#CCCCCC" stroke-width="4.096"/>
<g id="SVGRepo_iconCarrier"> <g> <g> <path d="M437.333,32H74.667C33.493,32,0,65.493,0,106.667V320c0,41.173,33.493,74.667,74.667,74.667h25.387l-34.944,69.888 c-2.091,4.203-1.195,9.301,2.219,12.523C69.355,478.997,72,480,74.667,480c1.813,0,3.627-0.448,5.291-1.408l146.88-83.925h210.496 C478.507,394.667,512,361.173,512,320V106.667C512,65.493,478.507,32,437.333,32z M490.645,319.979 c0,29.397-23.936,53.333-53.333,53.333H223.979c-1.856,0-3.669,0.491-5.291,1.408L99.947,442.581l26.923-53.824 c1.664-3.285,1.472-7.232-0.469-10.368s-5.376-5.056-9.067-5.056H74.667c-29.397,0-53.333-23.936-53.333-53.333V106.667 c0-29.397,23.936-53.333,53.333-53.333v-0.021h362.645c29.397,0,53.333,23.936,53.333,53.333V319.979z"/> </g> </g> </g>
</svg>