<svg viewBox="0 0 149 42" xmlns:xlink="http://www.w3.org/1999/xlink" xmlns="http://www.w3.org/2000/svg" width="149" height="42" fill="none"><path fill="#161616" d="M6.218 16.456c0-.683.037-1.259.112-1.728a3.88 3.88 0 0 1 .384-1.216 2.88 2.88 0 0 1 .768-.88c.32-.245.725-.485 1.216-.72l3.2-1.52h2.112l1.264 3.392c.118.33.262.55.432.656.181.107.448.16.8.16h.48v1.92l-.48.48c-.704 0-1.258-.107-1.664-.32-.405-.224-.741-.57-1.008-1.04l-.096.016V17h-2.704c-.65 0-1.173-.16-1.568-.48a1.577 1.577 0 0 1-.592-1.264c0-.373.123-.725.368-1.056l-.064-.08-.368.16c-.139.064-.25.144-.336.24a.927.927 0 0 0-.208.384c-.043.16-.075.368-.096.624-.021.245-.032.555-.032.928v5.408h-1.92v-5.408Zm3.872-2.512c0 .213.08.379.24.496.17.107.4.16.688.16h2.352l-.8-2.112-1.68.672c-.533.213-.8.475-.8.784Zm6.414 1.136.48-.48h1.712v1.92l-.48.48h-1.712v-1.92Zm1.72 0 .48-.48h1.711v1.92l-.48.48h-1.712v-1.92Zm1.718 0 .48-.48h.48c.853 0 1.28-.373 1.28-1.12v-2.288h1.76v2.288c0 .747.373 1.12 1.12 1.12h.64v1.92l-.48.48c-.854 0-1.504-.17-1.952-.512-.438-.352-.73-.901-.88-1.648h-.096c-.15.747-.405 1.296-.768 1.648-.363.341-.89.512-1.584.512v-1.92Zm4.224 5.36a.964.964 0 0 1-.688-.256c-.17-.17-.256-.443-.256-.816 0-.373.085-.645.256-.816a.964.964 0 0 1 .688-.256h.32c.277 0 .501.085.672.256.181.17.272.443.272.816 0 .373-.09.645-.272.816-.17.17-.395.256-.672.256h-.32Zm-2.528 0a.964.964 0 0 1-.688-.256c-.17-.17-.256-.443-.256-.816 0-.373.085-.645.256-.816a.964.964 0 0 1 .688-.256h.32c.277 0 .501.085.672.256.181.17.272.443.272.816 0 .373-.09.645-.272.816-.17.17-.395.256-.672.256h-.32Zm3.585-5.36.48-.48h.4c.853 0 1.28-.373 1.28-1.12V5.16h1.92v8.32c0 .747.373 1.12 1.12 1.12h.56v1.92l-.48.48c-.875 0-1.541-.17-2-.512-.459-.352-.762-.901-.912-1.648h-.096c-.139.747-.384 1.296-.736 1.648-.352.341-.864.512-1.536.512v-1.92Zm5.281 0 .48-.48h2.08l.032-.08-1.552-1.904v-2.48a8.178 8.178 0 0 1 1.68-.56 7.7 7.7 0 0 1 1.744-.208c1.238 0 2.144.219 2.72.656.576.437.864 1.125.864 2.064 0 .288-.026.544-.08.768a2.173 2.173 0 0 1-.256.608c-.106.181-.25.357-.432.528-.17.17-.384.357-.64.56l.016.048h1.952v1.92l-.48.48h-.16a8.84 8.84 0 0 1-1.792-.192 5.255 5.255 0 0 1-1.648-.672c-.49.31-1.008.533-1.552.672A7.31 7.31 0 0 1 31.8 17h-1.296v-1.92Zm2.576-3.008 2.08 2.448.976-.8c.15-.128.278-.235.384-.32.107-.085.192-.165.256-.24a.866.866 0 0 0 .176-.544c0-.31-.149-.528-.448-.656-.288-.128-.8-.192-1.536-.192-.33 0-.666.021-1.008.064-.341.043-.634.09-.88.144v.096Zm5.55 3.008.48-.48h1.711v1.92l-.48.48H38.63v-1.92Zm1.718 0 .48-.48h1.712v1.92l-.48.48h-1.712v-1.92Zm1.719 0 .48-.48h.48c.853 0 1.28-.373 1.28-1.12v-2.288h1.76v2.288c0 .747.373 1.12 1.12 1.12h.64v1.92l-.48.48c-.854 0-1.504-.17-1.952-.512-.438-.352-.73-.901-.88-1.648h-.096c-.15.747-.405 1.296-.768 1.648-.363.341-.89.512-1.584.512v-1.92Zm4.224-5.168a.964.964 0 0 1-.688-.256c-.17-.17-.256-.443-.256-.816 0-.373.085-.645.256-.816a.964.964 0 0 1 .688-.256h.32c.277 0 .501.085.672.256.181.17.272.443.272.816 0 .373-.09.645-.272.816-.17.17-.395.256-.672.256h-.32Zm-2.528 0a.964.964 0 0 1-.688-.256c-.17-.17-.256-.443-.256-.816 0-.373.085-.645.256-.816a.964.964 0 0 1 .688-.256h.32c.277 0 .501.085.672.256.181.17.272.443.272.816 0 .373-.09.645-.272.816-.17.17-.395.256-.672.256h-.32Zm3.585 5.168.48-.48h.704c.406 0 .672-.075.8-.224.139-.16.208-.405.208-.736V5.16h1.92v8.48c0 1.141-.224 1.984-.672 2.528-.437.544-1.19.821-2.256.832h-1.184v-1.92Zm6.034-9.92h1.92V17h-1.92V5.16ZM68.047 17c-.97-.01-1.68-.245-2.128-.704-.448-.47-.672-1.11-.672-1.92v-.08h-.096a4.927 4.927 0 0 1-.304.944 1.778 1.778 0 0 1-.416.624 1.69 1.69 0 0 1-.608.336 3.186 3.186 0 0 1-.832.096c-.768 0-1.344-.203-1.728-.608-.384-.416-.576-.997-.576-1.744 0-.875.24-1.584.72-2.128.49-.555 1.147-1.035 1.968-1.44l1.792-.896V8.6h1.92v5.136c0 .32.07.544.208.672.15.128.4.192.752.192h.48v1.92l-.48.48Zm-4.528-3.104c.619 0 1.045-.059 1.28-.176.245-.117.368-.33.368-.64v-1.92l-1.184.56c-.288.139-.539.261-.752.368a3.47 3.47 0 0 0-.528.336 1.341 1.341 0 0 0-.32.336.822.822 0 0 0-.096.4c0 .267.085.459.256.576.181.107.507.16.976.16Zm2.464-6.576a.964.964 0 0 1-.688-.256c-.17-.17-.256-.443-.256-.816 0-.373.085-.645.256-.816a.964.964 0 0 1 .688-.256h.32c.277 0 .501.085.672.256.181.17.272.443.272.816 0 .373-.09.645-.272.816-.17.17-.395.256-.672.256h-.32Zm-2.528 0a.964.964 0 0 1-.688-.256c-.17-.17-.256-.443-.256-.816 0-.373.085-.645.256-.816a.964.964 0 0 1 .688-.256h.32c.277 0 .501.085.672.256.181.17.272.443.272.816 0 .373-.09.645-.272.816-.17.17-.395.256-.672.256h-.32Zm4.596 7.76.48-.48h1.712v1.92l-.48.48h-1.712v-1.92Zm1.719 0 .48-.48h.464c.384 0 .699-.016.944-.048.256-.032.459-.085.608-.16.16-.085.267-.187.32-.304.064-.128.096-.283.096-.464 0-.16-.016-.363-.048-.608-.021-.256-.07-.587-.144-.992l-.272-1.488 1.744-.288.24 1.488c.053.288.096.608.128.96s.048.661.048.928c0 1.163-.288 2.016-.864 2.56-.565.544-1.499.816-2.8.816h-.944v-1.92Zm2.8 5.36a.964.964 0 0 1-.688-.256c-.17-.17-.256-.443-.256-.816 0-.373.085-.645.256-.816a.964.964 0 0 1 .688-.256h.32c.277 0 .501.085.672.256.181.17.272.443.272.816 0 .373-.09.645-.272.816-.17.17-.395.256-.672.256h-.32Zm3.25-15.28h1.92V17h-1.92V5.16Zm3.363 13.28h1.024c1.014 0 1.824-.128 2.432-.384.619-.256 1.056-.608 1.312-1.056h-1.856c-.864 0-1.541-.25-2.032-.752-.48-.512-.72-1.221-.72-2.128 0-.555.08-1.067.24-1.536.17-.48.4-.89.688-1.232a3.181 3.181 0 0 1 1.04-.816 2.893 2.893 0 0 1 1.312-.304c.97 0 1.739.384 2.304 1.152.566.768.875 1.84.928 3.216h.816v1.92l-.48.48h-.544c-.299 1.227-.89 2.17-1.776 2.832-.874.672-2.042 1.008-3.504 1.008h-1.184v-2.4Zm1.76-4.64c0 .288.118.496.352.624.235.117.555.176.96.176h2v-.048c0-.576-.176-1.04-.528-1.392-.341-.352-.779-.528-1.312-.528-.416 0-.768.112-1.056.336-.277.213-.416.49-.416.832Zm5.249 1.28.48-.48h1.712v1.92l-.48.48h-1.712v-1.92Zm1.719 0 .48-.48h.464c.384 0 .698-.016.944-.048.256-.032.458-.085.608-.16.16-.085.266-.187.32-.304.064-.128.096-.283.096-.464 0-.16-.016-.363-.048-.608-.022-.256-.07-.587-.144-.992l-.272-1.488 1.744-.288.24 1.488c.053.288.096.608.128.96s.048.661.048.928c0 1.163-.288 2.016-.864 2.56-.566.544-1.499.816-2.8.816h-.944v-1.92Zm2.8 5.36a.964.964 0 0 1-.688-.256c-.171-.17-.256-.443-.256-.816 0-.373.085-.645.256-.816a.964.964 0 0 1 .688-.256h.32c.277 0 .501.085.672.256.181.17.272.443.272.816 0 .373-.091.645-.272.816-.171.17-.395.256-.672.256h-.32Z"/><path fill="#6C737F" d="M2.79 34.902c0-.27.018-.504.055-.7a1.416 1.416 0 0 1 .595-.924c.168-.121.383-.245.644-.371l1.001-.49h.546l.497 1.351c.047.126.089.231.126.315.042.08.086.142.133.189.047.047.098.08.154.098.06.019.13.028.21.028h.14v.462l-.14.14c-.22 0-.394-.03-.525-.091-.13-.065-.247-.191-.35-.378l-.042.014V35h-.833c-.383 0-.681-.075-.896-.224a.717.717 0 0 1-.322-.623c0-.247.096-.446.287-.595l-.028-.028-.217.126c-.103.065-.189.13-.259.196a.699.699 0 0 0-.154.238 1.47 1.47 0 0 0-.084.336c-.014.13-.02.29-.02.476v2.24h-.519v-2.24Zm1.413-.994a.4.4 0 0 0 .203.371c.135.08.348.119.637.119h.763a4.616 4.616 0 0 1-.168-.413l-.37-.994-.288.133c-.154.07-.28.138-.378.203-.098.06-.177.121-.238.182a.516.516 0 0 0-.16.399Zm2.552.63.14-.14h.245c.396 0 .595-.198.595-.595v-1.106h.49v1.106c0 .397.198.595.595.595h.245v.462l-.14.14c-.644 0-1.022-.229-1.134-.686h-.035c-.052.257-.152.436-.301.539-.15.098-.383.147-.7.147v-.462ZM8.393 36.4a.303.303 0 0 1-.224-.084c-.056-.051-.084-.138-.084-.259s.028-.21.084-.266a.319.319 0 0 1 .224-.077h.077c.093 0 .168.026.224.077.056.056.084.145.084.266 0 .121-.028.208-.084.259a.303.303 0 0 1-.224.084h-.077Zm-.903 0a.303.303 0 0 1-.224-.084c-.056-.051-.084-.138-.084-.259s.028-.21.084-.266a.319.319 0 0 1 .224-.077h.077c.093 0 .168.026.224.077.056.056.084.145.084.266 0 .121-.028.208-.084.259a.303.303 0 0 1-.224.084H7.49Zm1.432-1.862.14-.14h.245c.396 0 .595-.198.595-.595V29.82h.518v3.983c0 .397.198.595.595.595h.244v.462l-.14.14c-.662 0-1.05-.229-1.161-.686h-.035c-.052.257-.152.436-.301.539-.15.098-.383.147-.7.147v-.462Zm2.2 0 .14-.14h1.296l.007-.028-.987-1.218v-.602c.205-.107.427-.189.665-.245.242-.06.478-.091.707-.091.424 0 .753.086.987.259a.84.84 0 0 1 .357.721.972.972 0 0 1-.05.322.842.842 0 0 1-.146.266c-.07.089-.161.18-.273.273-.112.093-.248.2-.406.322l.007.021h1.183v.462l-.14.14h-.455c-.187 0-.369-.026-.546-.077a1.746 1.746 0 0 1-.483-.245c-.15.107-.313.189-.49.245a1.883 1.883 0 0 1-.54.077h-.832v-.462Zm.925-1.554.987 1.176.077-.063.294-.245c.088-.07.163-.135.224-.196a1.06 1.06 0 0 0 .14-.182.407.407 0 0 0 .049-.196c0-.15-.077-.264-.231-.343-.154-.08-.371-.119-.651-.119-.136 0-.278.012-.427.035a2.705 2.705 0 0 0-.462.105v.028Zm2.418 1.554.14-.14h.245c.397 0 .595-.198.595-.595v-1.106h.49v1.106c0 .397.199.595.595.595h.245v.462l-.14.14c-.644 0-1.022-.229-1.134-.686h-.034c-.052.257-.152.436-.302.539-.149.098-.382.147-.7.147v-.462Zm1.617-2.681a.319.319 0 0 1-.224-.077c-.056-.056-.084-.145-.084-.266 0-.121.029-.208.085-.259a.303.303 0 0 1 .223-.084h.078c.093 0 .168.028.224.084.055.051.084.138.084.259s-.029.21-.084.266a.319.319 0 0 1-.224.077h-.078Zm-.902 0a.319.319 0 0 1-.224-.077c-.056-.056-.085-.145-.085-.266 0-.121.028-.208.085-.259a.303.303 0 0 1 .224-.084h.077c.093 0 .168.028.223.084.056.051.085.138.085.259s-.028.21-.085.266a.319.319 0 0 1-.223.077h-.077Zm1.453 2.681.14-.14h.203c.224 0 .384-.051.483-.154.102-.103.154-.266.154-.49V29.82h.518v3.934c0 .43-.094.744-.28.945-.182.2-.474.301-.875.301h-.343v-.462Zm2.544-4.718h.518V35h-.518v-5.18Zm4.263 5.243c-.196 0-.373-.03-.532-.091a1.19 1.19 0 0 1-.392-.245 1.093 1.093 0 0 1-.245-.371 1.288 1.288 0 0 1-.084-.469c0-.247.06-.49.182-.728.121-.238.306-.492.553-.763l.238-.273h.63l.19.203c.265.285.45.546.552.784.107.238.161.474.161.707 0 .177-.028.343-.084.497-.056.15-.138.28-.245.392-.107.112-.24.2-.399.266-.154.06-.329.091-.525.091Zm.07-.602c.2 0 .366-.06.497-.182a.603.603 0 0 0 .196-.462.835.835 0 0 0-.112-.406 2.188 2.188 0 0 0-.343-.455l-.315-.336h-.042l-.287.336a3.19 3.19 0 0 0-.322.434.797.797 0 0 0-.105.392c0 .093.016.182.05.266a.71.71 0 0 0 .364.357.715.715 0 0 0 .28.056h.14Zm.357-3.178a.319.319 0 0 1-.224-.077c-.056-.056-.084-.145-.084-.266 0-.121.028-.208.084-.259a.303.303 0 0 1 .224-.084h.077c.093 0 .168.028.224.084.056.051.084.138.084.259s-.028.21-.084.266a.319.319 0 0 1-.224.077h-.077Zm-.903 0a.319.319 0 0 1-.224-.077c-.056-.056-.084-.145-.084-.266 0-.121.028-.208.084-.259a.303.303 0 0 1 .224-.084h.077c.093 0 .168.028.224.084.056.051.084.138.084.259s-.028.21-.084.266a.319.319 0 0 1-.224.077h-.077Zm1.626 4.795h.259c.256 0 .466-.037.63-.112a.968.968 0 0 0 .385-.301 1.09 1.09 0 0 0 .196-.434 2.32 2.32 0 0 0 .056-.518 5.598 5.598 0 0 0-.077-.847l-.147-.791.49-.098.09.532c.075.43.113.835.113 1.218 0 .257-.028.502-.084.735a1.627 1.627 0 0 1-.287.623c-.13.182-.308.327-.532.434-.22.107-.497.161-.833.161h-.26v-.602Zm2.797-6.258h.518V35h-.518v-5.18Zm.62 6.258h.26c.256 0 .466-.037.63-.112a.967.967 0 0 0 .385-.301c.093-.121.158-.266.196-.434.037-.163.056-.336.056-.518a5.549 5.549 0 0 0-.077-.847l-.147-.791.49-.098.09.532c.075.43.113.835.113 1.218 0 .257-.028.502-.084.735a1.626 1.626 0 0 1-.287.623c-.13.182-.308.327-.532.434-.22.107-.497.161-.833.161h-.26v-.602Zm1.394-3.941a.319.319 0 0 1-.224-.077c-.056-.056-.084-.145-.084-.266 0-.121.028-.208.084-.259a.303.303 0 0 1 .224-.084h.077c.093 0 .168.028.224.084.056.051.084.138.084.259s-.028.21-.084.266a.319.319 0 0 1-.224.077H29.4Zm1.117 3.941h.483c.565 0 .983-.124 1.253-.371.27-.247.406-.593.406-1.036v-.154h-.035a.753.753 0 0 1-.329.364c-.15.089-.326.133-.532.133-.373 0-.662-.098-.868-.294-.205-.2-.308-.48-.308-.84 0-.21.03-.408.091-.595.066-.187.154-.348.266-.483.112-.14.245-.25.4-.329a1.09 1.09 0 0 1 .517-.126c.402 0 .717.173.945.518.229.345.343.83.343 1.456 0 .742-.18 1.32-.539 1.736-.354.415-.891.623-1.61.623h-.483v-.602Zm1.386-1.68c.2 0 .36-.016.476-.049a.593.593 0 0 0 .28-.168c0-.378-.074-.677-.224-.896a.703.703 0 0 0-.616-.336c-.238 0-.422.08-.553.238-.126.159-.189.366-.189.623 0 .205.054.355.161.448.112.093.287.14.525.14h.14Zm6.142.686c-.49 0-.903-.026-1.239-.077-.331-.051-.6-.133-.805-.245a1.049 1.049 0 0 1-.448-.441 1.574 1.574 0 0 1-.133-.679c0-.187.023-.378.07-.574.051-.196.129-.413.231-.651l.434.133c-.191.397-.287.737-.287 1.022 0 .285.136.495.406.63.27.13.698.196 1.281.196h.98c.331 0 .605-.01.82-.028.214-.019.384-.051.51-.098a.477.477 0 0 0 .26-.189.594.594 0 0 0 .076-.315 3.76 3.76 0 0 0-.084-.77l-.105-.581.49-.077.091.581c.033.21.054.383.063.518.014.13.021.24.021.329 0 .243-.046.448-.14.616a.96.96 0 0 1-.448.406c-.205.103-.476.177-.812.224-.331.047-.742.07-1.232.07Zm.392-2.667a.319.319 0 0 1-.224-.077c-.056-.056-.084-.145-.084-.266 0-.121.028-.208.084-.259a.303.303 0 0 1 .224-.084h.077c.093 0 .168.028.224.084.056.051.084.138.084.259s-.028.21-.084.266a.319.319 0 0 1-.224.077h-.077Zm-.903 0a.319.319 0 0 1-.224-.077c-.056-.056-.084-.145-.084-.266 0-.121.028-.208.084-.259a.303.303 0 0 1 .224-.084h.077c.093 0 .168.028.224.084.056.051.084.138.084.259s-.028.21-.084.266a.319.319 0 0 1-.224.077h-.077Zm5.2 2.583c-.224 0-.415-.019-.574-.056a.894.894 0 0 1-.378-.182.766.766 0 0 1-.203-.343 1.797 1.797 0 0 1-.063-.511V29.82h.518v4.088c0 .177.05.303.147.378.098.075.25.112.455.112h.245v.462l-.14.14h-.007Zm.92-.406a.965.965 0 0 1-.377.315c-.14.06-.32.091-.54.091v-.462l.14-.14a.628.628 0 0 0 .225-.035.446.446 0 0 0 .168-.105.688.688 0 0 0 .133-.196c.042-.084.084-.182.126-.294l.196-.518c.107-.28.25-.495.427-.644.177-.154.413-.231.707-.231.345 0 .611.156.798.469.191.313.287.747.287 1.302v.329l-.413.609-1.876-.49Zm.28-.553 1.52.406v-.301c0-.364-.06-.649-.182-.854-.117-.21-.282-.315-.497-.315a.531.531 0 0 0-.413.161 1.413 1.413 0 0 0-.238.406l-.19.497Zm3.119.959a.615.615 0 0 1-.42-.147c-.108-.103-.161-.252-.161-.448v-.539h.49v.532h.945c.158 0 .289-.005.392-.014.102-.01.184-.023.245-.042a.246.246 0 0 0 .126-.091.274.274 0 0 0 .035-.147.74.74 0 0 0-.035-.203 6.09 6.09 0 0 0-.126-.364l-.672-1.848.497-.182.714 1.96c.07.187.13.34.182.462.056.117.112.21.168.28.056.07.112.119.168.147.06.028.128.042.203.042h.175v.462l-.14.14a1.46 1.46 0 0 1-.336-.035.869.869 0 0 1-.252-.105.894.894 0 0 1-.203-.196 1.681 1.681 0 0 1-.175-.294h-.035c-.028.229-.117.392-.266.49-.15.093-.371.14-.665.14h-.854Zm2.787-.462.14-.14h.238c.206 0 .395-.007.567-.021.178-.014.357-.04.54-.077.181-.042.373-.1.573-.175.206-.075.437-.173.693-.294l.644-.308v-.028l-1.036-.231-1.449-.357v.602h-.49v-.539c0-.196.054-.343.161-.441a.598.598 0 0 1 .42-.154 3.418 3.418 0 0 1 .525.091l1.708.441c.257.065.472.112.644.14.173.023.322.035.448.035h.112v.602h-.532v.084c0 .233.052.397.154.49.103.093.262.14.476.14h.245v.462l-.14.14a2.13 2.13 0 0 1-.525-.056.836.836 0 0 1-.357-.182.867.867 0 0 1-.203-.336 1.846 1.846 0 0 1-.07-.497l-.546.329c-.289.173-.546.31-.77.413a4.301 4.301 0 0 1-.63.224 3.655 3.655 0 0 1-.574.091c-.182.01-.378.014-.588.014h-.378v-.462Zm1.876-2.961a.319.319 0 0 1-.224-.077c-.056-.056-.084-.145-.084-.266 0-.121.028-.208.084-.259a.303.303 0 0 1 .224-.084h.077c.094 0 .168.028.224.084.056.051.084.138.084.259s-.028.21-.084.266a.319.319 0 0 1-.224.077h-.077Zm2.766 2.961.14-.14h.203c.224 0 .385-.051.483-.154.103-.103.154-.266.154-.49V29.82h.518v3.934c0 .43-.093.744-.28.945-.182.2-.474.301-.875.301h-.343v-.462Zm5.242.525c-.196 0-.373-.03-.532-.091a1.191 1.191 0 0 1-.392-.245 1.095 1.095 0 0 1-.245-.371 1.288 1.288 0 0 1-.084-.469c0-.247.06-.49.182-.728a3.57 3.57 0 0 1 .553-.763l.238-.273h.63l.19.203c.265.285.45.546.552.784.108.238.161.474.161.707 0 .177-.028.343-.084.497-.056.15-.137.28-.245.392-.107.112-.24.2-.399.266-.154.06-.329.091-.525.091Zm.07-.602c.2 0 .367-.06.497-.182a.603.603 0 0 0 .196-.462.834.834 0 0 0-.112-.406 2.184 2.184 0 0 0-.343-.455l-.315-.336h-.042l-.287.336c-.14.163-.247.308-.322.434a.797.797 0 0 0-.105.392c0 .093.017.182.05.266a.712.712 0 0 0 .364.357.715.715 0 0 0 .28.056h.14Zm.357-3.178a.319.319 0 0 1-.224-.077c-.056-.056-.084-.145-.084-.266 0-.121.028-.208.084-.259a.303.303 0 0 1 .224-.084h.077c.094 0 .168.028.224.084.056.051.084.138.084.259s-.028.21-.084.266a.319.319 0 0 1-.224.077h-.077Zm-.903 0a.319.319 0 0 1-.224-.077c-.056-.056-.084-.145-.084-.266 0-.121.028-.208.084-.259a.303.303 0 0 1 .224-.084h.077c.094 0 .168.028.224.084.056.051.084.138.084.259s-.028.21-.084.266a.319.319 0 0 1-.224.077h-.077ZM62.086 35a.615.615 0 0 1-.42-.147c-.107-.103-.161-.252-.161-.448v-.539h.49v.532h.945c.159 0 .29-.005.392-.014.103-.01.184-.023.245-.042a.246.246 0 0 0 .126-.091.273.273 0 0 0 .035-.147.737.737 0 0 0-.035-.203 6.09 6.09 0 0 0-.126-.364l-.672-1.848.497-.182.714 1.96c.07.187.13.34.182.462.056.117.112.21.168.28.056.07.112.119.168.147.06.028.128.042.203.042h.175v.462l-.14.14a1.46 1.46 0 0 1-.336-.035.869.869 0 0 1-.252-.105.896.896 0 0 1-.203-.196 1.688 1.688 0 0 1-.175-.294h-.035c-.028.229-.117.392-.266.49-.15.093-.371.14-.665.14h-.854Zm2.788-.462.14-.14h.238c.205 0 .394-.007.567-.021.177-.014.357-.04.539-.077.182-.042.373-.1.574-.175.205-.075.436-.173.693-.294l.644-.308v-.028l-1.036-.231-1.45-.357v.602h-.49v-.539c0-.196.054-.343.162-.441a.598.598 0 0 1 .42-.154 3.424 3.424 0 0 1 .525.091l1.708.441c.256.065.471.112.644.14.172.023.322.035.448.035h.112v.602h-.546l-.952.574c-.29.173-.546.31-.77.413a4.301 4.301 0 0 1-.63.224 3.657 3.657 0 0 1-.574.091c-.182.01-.378.014-.588.014h-.378v-.462Zm4.814 1.54h.371c.509 0 .9-.096 1.176-.287.28-.187.453-.45.518-.791h-.819c-.373 0-.662-.098-.868-.294-.205-.196-.308-.471-.308-.826 0-.21.03-.408.091-.595.066-.187.154-.348.266-.483.112-.14.245-.25.4-.329a1.09 1.09 0 0 1 .517-.126c.388 0 .69.173.91.518.224.345.336.83.336 1.456v.077h.322v.462l-.14.14h-.245c-.103.537-.334.95-.693 1.239-.355.294-.842.441-1.463.441h-.37v-.602Zm.56-2.268c0 .205.054.355.161.448.112.093.287.14.525.14h.854v-.217c0-.378-.072-.677-.217-.896-.14-.224-.334-.336-.58-.336-.239 0-.423.08-.554.238-.126.159-.189.366-.189.623Zm3.712 1.428a2.036 2.036 0 0 0-.413-.182 2.051 2.051 0 0 0-.455-.056h-.63v-.462l.14-.14h.525V29.82h.518v4.641c.102.023.203.056.3.098.099.042.204.093.316.154l.357.203-.301.525-.357-.203Zm.917-5.418h.518V35h-.518v-5.18ZM80.763 35c-.214 0-.396-.016-.546-.049a.882.882 0 0 1-.357-.175.753.753 0 0 1-.196-.315 1.596 1.596 0 0 1-.063-.483v-.119h-.035a.86.86 0 0 1-.336.476.986.986 0 0 1-.56.154c-.312 0-.557-.084-.735-.252-.172-.168-.259-.406-.259-.714a1.028 1.028 0 0 1 .266-.7c.098-.112.222-.222.371-.329.15-.112.332-.229.546-.35l.707-.406v-.35h.49v2.52c0 .191.05.322.147.392.098.065.25.098.455.098h.245v.462l-.14.14Zm-1.988-1.113c.285 0 .488-.04.61-.119.12-.084.181-.231.181-.441v-1.022l-.707.378c-.247.135-.424.261-.532.378a.549.549 0 0 0-.16.392c0 .15.044.259.132.329.094.07.252.105.476.105Zm1.015-3.08a.319.319 0 0 1-.224-.077c-.056-.056-.084-.145-.084-.266 0-.121.028-.208.084-.259a.303.303 0 0 1 .224-.084h.077c.094 0 .168.028.224.084.056.051.084.138.084.259s-.028.21-.084.266a.319.319 0 0 1-.224.077h-.077Zm-.903 0a.319.319 0 0 1-.224-.077c-.056-.056-.084-.145-.084-.266 0-.121.028-.208.084-.259a.303.303 0 0 1 .224-.084h.077c.094 0 .168.028.224.084.056.051.084.138.084.259s-.028.21-.084.266a.319.319 0 0 1-.224.077h-.077Zm1.873 3.731.14-.14h.105c.308 0 .53-.037.665-.112.14-.08.21-.229.21-.448 0-.084-.007-.191-.02-.322a5.437 5.437 0 0 0-.07-.518l-.099-.581.49-.077.084.581c.033.229.056.415.07.56.014.145.021.264.021.357 0 .392-.116.684-.35.875-.228.191-.562.287-1 .287h-.246v-.462Zm1.064 1.862a.303.303 0 0 1-.224-.084c-.056-.051-.084-.138-.084-.259s.028-.21.084-.266a.319.319 0 0 1 .224-.077h.077c.094 0 .168.026.224.077.056.056.084.145.084.266 0 .121-.028.208-.084.259a.303.303 0 0 1-.224.084h-.077Zm1.372-6.58h.518V35h-.518v-5.18Zm1.278 6.258h.371c.509 0 .901-.096 1.176-.287.28-.187.453-.45.518-.791h-.819c-.373 0-.662-.098-.868-.294-.205-.196-.308-.471-.308-.826 0-.21.03-.408.091-.595.066-.187.154-.348.266-.483.112-.14.245-.25.4-.329a1.09 1.09 0 0 1 .517-.126c.388 0 .691.173.91.518.224.345.336.83.336 1.456v.077h.322v.462l-.14.14h-.245c-.102.537-.333.95-.693 1.239-.354.294-.842.441-1.463.441h-.37v-.602Zm.56-2.268c0 .205.054.355.161.448.112.093.287.14.525.14h.854v-.217c0-.378-.072-.677-.217-.896-.14-.224-.333-.336-.58-.336-.239 0-.423.08-.554.238-.126.159-.189.366-.189.623Zm2.214.728.14-.14h.245c.396 0 .595-.198.595-.595v-1.106h.49v1.106c0 .397.198.595.595.595h.245v.462l-.14.14c-.644 0-1.022-.229-1.134-.686h-.035c-.052.257-.152.436-.301.539-.15.098-.383.147-.7.147v-.462ZM88.43 36.4a.303.303 0 0 1-.224-.084c-.056-.051-.084-.138-.084-.259s.028-.21.084-.266a.319.319 0 0 1 .224-.077h.077c.093 0 .168.026.224.077.056.056.084.145.084.266 0 .121-.028.208-.084.259a.303.303 0 0 1-.224.084h-.077Zm.984-1.862.14-.14h.203c.224 0 .385-.051.483-.154.102-.103.154-.266.154-.49V29.82h.518v3.934c0 .43-.094.744-.28.945-.182.2-.474.301-.875.301h-.343v-.462Zm2.545-4.718h.518V35h-.518v-5.18Z"/><path fill="url(#a)" d="M147.089 12.322c-.657 0-1.249.615-1.24 1.255a1.21 1.21 0 0 0 .362.875c.239.239.557.38.884.371.327.01.644-.132.883-.37.23-.23.371-.549.362-.876a1.226 1.226 0 0 0-.362-.893 1.258 1.258 0 0 0-.874-.362h-.015Z"/><path fill="url(#b)" d="M137.372 14.015a.968.968 0 0 0 .395 1.31.958.958 0 0 0 1.138-.17.845.845 0 0 0 .164-.219.966.966 0 0 0-1.697-.92Z"/><path fill="url(#c)" d="m141.816 12.845-.009.01a1.192 1.192 0 0 0 .218 1.662c.478.378 1.15.328 1.57-.092a.662.662 0 0 0 .092-.11 1.19 1.19 0 0 0-1.871-1.47Z"/><path fill="url(#d)" d="M134.194 15.405a.685.685 0 0 0-.663.673.648.648 0 0 0 .194.469.663.663 0 0 0 .947 0 .648.648 0 0 0 .194-.469.654.654 0 0 0-.194-.478.677.677 0 0 0-.475-.195h-.003Z"/><path fill="url(#e)" d="M102.683 12.425c-.645-.009-1.264.592-1.255 1.256 0 .318.133.645.362.874.239.24.566.372.893.363.326.009.645-.133.874-.363a1.21 1.21 0 0 0 .371-.884 1.21 1.21 0 0 0-.371-.883 1.212 1.212 0 0 0-.844-.363h-.03Z"/><path fill="url(#f)" d="M111.103 13.73a.96.96 0 0 0-.388 1.303.965.965 0 0 0 1.526.232.966.966 0 0 0-1.138-1.534Z"/><path fill="url(#g)" d="m106.439 12.74-.007.007a1.195 1.195 0 0 0-.202 1.663c.403.521 1.15.614 1.67.21a.591.591 0 0 0 .109-.092c.42-.42.47-1.092.093-1.57a1.19 1.19 0 0 0-1.663-.219Z"/><path fill="url(#h)" d="M134.056 10.85a.974.974 0 0 0 .498 1.276.977.977 0 0 0 1.269-.505.975.975 0 0 0-.499-1.276.976.976 0 0 0-1.268.506Z"/><path fill="url(#i)" d="M146.757 3c-.825 0-1.585.759-1.573 1.574-.012.413.166.814.468 1.116.29.29.692.468 1.105.458a1.55 1.55 0 0 0 1.126-.458 1.592 1.592 0 0 0 0-2.232A1.547 1.547 0 0 0 146.757 3Z"/><path fill="url(#j)" d="M127.333 10.002a.803.803 0 0 0 .593.964.81.81 0 0 0 .75-.22.81.81 0 0 0 .209-.378.811.811 0 0 0-.593-.965.801.801 0 0 0-.959.599Z"/><path fill="url(#k)" d="M130.666 7.844a.939.939 0 0 0 .567 1.207.952.952 0 0 0 1.213-.56l-.007-.007a.936.936 0 0 0-.883-1.259.952.952 0 0 0-.89.619Z"/><path fill="url(#l)" d="M134.097 6.18a1.217 1.217 0 0 0 .547 1.639c.476.25 1.057.14 1.421-.225.087-.087.156-.191.225-.312a1.233 1.233 0 0 0-.538-1.649 1.237 1.237 0 0 0-1.655.547Z"/><path fill="url(#m)" d="M137.787 4.934a1.439 1.439 0 0 0 .407 1.989 1.414 1.414 0 0 0 1.805-.183c.06-.061.132-.132.172-.213a1.452 1.452 0 0 0-.396-2 1.438 1.438 0 0 0-1.988.406Z"/><path fill="url(#n)" d="M141.769 4.084a1.432 1.432 0 0 0 .153 2.02 1.438 1.438 0 0 0 1.947-.082l.081-.081a1.454 1.454 0 0 0-.162-2.03 1.446 1.446 0 0 0-.928-.337c-.407 0-.81.172-1.091.51Z"/><path fill="url(#o)" d="M145.571 9.252c.001.373.148.716.413.982.255.255.599.402.972.403.373-.001.726-.138.991-.403.255-.256.402-.619.393-.982a1.357 1.357 0 0 0-.393-.982 1.409 1.409 0 0 0-.981-.414c-.727 0-1.405.66-1.395 1.396Z"/><path fill="url(#p)" d="M127.207 15.067a.731.731 0 0 0 .63.829.726.726 0 0 0 .828-.63.737.737 0 0 0-.735-.837.73.73 0 0 0-.723.638Z"/><path fill="url(#q)" d="M130.452 12.72a.884.884 0 0 0 1.475.862.951.951 0 0 0 .231-.381.883.883 0 0 0-.612-1.088.877.877 0 0 0-1.094.607Z"/><path fill="url(#r)" d="M137.793 9.414c-.335.55-.164 1.261.376 1.605a1.161 1.161 0 0 0 1.432-.172 1.03 1.03 0 0 0 .163-.213 1.158 1.158 0 0 0-.384-1.595 1.17 1.17 0 0 0-1.587.376Z"/><path fill="url(#s)" d="M141.78 8.565a1.269 1.269 0 0 0 .177 1.768 1.259 1.259 0 0 0 1.678-.089l.088-.088-.009-.008a1.232 1.232 0 0 0-.176-1.752 1.23 1.23 0 0 0-.791-.286c-.36 0-.719.156-.967.455Z"/><path fill="url(#t)" d="M103.002 3c-.815-.01-1.574.749-1.573 1.574-.012.412.155.826.457 1.128a1.593 1.593 0 0 0 2.231 0c.301-.302.468-.716.458-1.128a1.532 1.532 0 0 0-.458-1.105A1.54 1.54 0 0 0 103.002 3Z"/><path fill="url(#u)" d="M121.489 9.514a.803.803 0 0 0-.598.96.81.81 0 0 0 .965.593.814.814 0 0 0 .378-.21.812.812 0 0 0 .22-.75.803.803 0 0 0-.965-.593Z"/><path fill="url(#v)" d="M117.903 7.382a.949.949 0 0 0-.56 1.215c.173.48.713.74 1.2.56l.007.007a.953.953 0 0 0 .559-1.215.937.937 0 0 0-1.206-.567Z"/><path fill="url(#w)" d="M114.036 5.732a1.237 1.237 0 0 0-.546 1.656c.304.599 1.05.842 1.648.539a1.221 1.221 0 0 0 .536-1.648 1.21 1.21 0 0 0-1.092-.677c-.184 0-.371.042-.546.13Z"/><path fill="url(#x)" d="M110.793 4.397c-.27 0-.545.076-.787.236a1.44 1.44 0 0 0-.405 1.99 1.448 1.448 0 0 0 1.997.395.87.87 0 0 0 .214-.171 1.417 1.417 0 0 0 .182-1.807 1.435 1.435 0 0 0-1.199-.643h-.002Z"/><path fill="url(#y)" d="M105.998 4.082a1.433 1.433 0 0 0-.173 2.019c.517.598 1.42.67 2.028.163l.082-.082c.528-.528.567-1.36.081-1.948-.284-.33-.685-.499-1.088-.499-.33 0-.661.114-.93.347Z"/><path fill="url(#z)" d="M102.807 7.96c-.73 0-1.379.673-1.379 1.396 0 .352.148.716.413.981.255.255.619.403.982.393a1.357 1.357 0 0 0 1.384-1.385 1.372 1.372 0 0 0-.403-.972 1.378 1.378 0 0 0-.981-.413h-.016Z"/><path fill="url(#A)" d="M121.744 14.542a.73.73 0 0 0-.629.829c.056.4.426.687.827.63a.728.728 0 0 0 .631-.828.731.731 0 0 0-.829-.63Z"/><path fill="url(#B)" d="M118.241 12.21a.88.88 0 0 0-.607 1.095.885.885 0 0 0 1.088.613.941.941 0 0 0 .38-.232.867.867 0 0 0 .225-.863.884.884 0 0 0-1.086-.613Z"/><path fill="url(#C)" d="M114.456 10.456a.976.976 0 0 0-.505 1.269.973.973 0 0 0 1.576.293.979.979 0 0 0 .205-1.064.976.976 0 0 0-1.276-.498Z"/><path fill="url(#D)" d="M110.389 9.147a1.17 1.17 0 0 0-.376 1.588c.335.549 1.047.72 1.594.385a1.12 1.12 0 0 0 .214-.163c.376-.377.458-.967.171-1.433a1.18 1.18 0 0 0-.996-.548c-.207 0-.417.054-.607.171Z"/><path fill="url(#E)" d="M106.126 8.498a1.25 1.25 0 0 0-.167 1.76 1.23 1.23 0 0 0 1.749.177l.009.008.088-.089c.451-.45.496-1.184.089-1.678a1.265 1.265 0 0 0-1.768-.178Z"/><path fill="url(#F)" d="M115.581 15.509a.685.685 0 0 0-.672.663c0 .18.071.355.194.478a.656.656 0 0 0 .478.194.65.65 0 0 0 .469-.194.663.663 0 0 0 0-.947.648.648 0 0 0-.451-.194h-.018Z"/><path fill="url(#G)" d="M124.865 11.855a.768.768 0 0 0-.74.74.734.734 0 0 0 .215.531c.137.138.326.21.525.21.2 0 .389-.074.525-.21a.742.742 0 0 0 .216-.53c0-.2-.079-.384-.216-.52a.728.728 0 0 0-.509-.221h-.016Z"/><path fill="url(#H)" d="M124.194 17.98a.65.65 0 0 0 .2.478c.124.125.296.2.472.196a.661.661 0 0 0 .478-.191.687.687 0 0 0 .2-.478.692.692 0 0 0-.195-.482.684.684 0 0 0-.483-.196.697.697 0 0 0-.672.674Z"/><path fill="url(#I)" d="M124.23 34.452c-.183 0-.349.027-.491.081a.88.88 0 0 0-.355.243c-.14.164-.158.377-.18.647l-.007.076.006 2.115h.416l.002-1.495h.706v-.27h-.705v-.018l.003-.313c0-.15.013-.282.04-.397a.665.665 0 0 1 .123-.256.447.447 0 0 1 .202-.136.846.846 0 0 1 .24-.034h.017v.003h.223v-.246h-.24Z"/><path fill="url(#J)" d="m118.459 35.204-.004 1.351c0 .149-.014.283-.041.398a.68.68 0 0 1-.124.256.432.432 0 0 1-.201.134.793.793 0 0 1-.204.033.79.79 0 0 1-.207-.033.446.446 0 0 1-.202-.134.714.714 0 0 1-.123-.255 1.75 1.75 0 0 1-.041-.399l-.005-1.351h-.417l-.005 1.371.007.075c.022.27.04.483.179.647a.9.9 0 0 0 .356.243c.117.044.254.069.422.075l.015.001v.004h.001a.153.153 0 0 1 .037 0l.001-.004h.015c.167-.007.305-.032.422-.076a.542.542 0 0 0 .058-.03c.011-.006.023-.011.034-.018l.023-.012v.454c0 .15-.014.283-.041.398a.67.67 0 0 1-.124.256.432.432 0 0 1-.201.136.873.873 0 0 1-.248.034l.023.242c.178-.002.337-.029.476-.082a.87.87 0 0 0 .355-.242c.14-.163.158-.377.18-.647l.007-.076-.003-1.349.003-.03-.005-1.37h-.418Z"/><path fill="url(#K)" d="M105.469 34.674v.073a.218.218 0 0 0 .436 0v-.073a.219.219 0 0 0-.218-.218.219.219 0 0 0-.218.218Z"/><path fill="url(#L)" d="M105.468 35.231v2.382h.446v-2.382h-.446Z"/><path fill="url(#M)" d="M109.918 34.674v.073a.218.218 0 0 0 .436 0v-.073a.219.219 0 0 0-.218-.218.219.219 0 0 0-.218.218Z"/><path fill="url(#N)" d="M109.918 35.205v2.413h.445v-2.413h-.445Z"/><path fill="url(#O)" d="M141.657 34.674v.02a.218.218 0 1 0 .436 0v-.02a.218.218 0 0 0-.436 0Z"/><path fill="url(#P)" d="M141.653 35.205v2.413h.445v-2.413h-.445Z"/><path fill="url(#Q)" d="M133.282 35.204v2.174h-.833a.583.583 0 0 1-.582-.582v-1.592h-.436l-.005 1.262c0 .449.144.676.271.823.094.108.213.19.355.243.121.046.261.073.419.079v.003h1.256v-2.41h-.445Z"/><path fill="url(#R)" d="M130.331 34.456v.748h-.869l-.012.003a1.35 1.35 0 0 0-.419.078.883.883 0 0 0-.355.243c-.187.22-.271.473-.271.824v.118c0 .449.145.676.271.824a.882.882 0 0 0 .355.242c.12.045.261.072.419.079h.016v.003h1.311v-3.162h-.446Zm-1.414 2.344v-.779c0-.32.261-.581.581-.581h.833v1.942h-.833a.583.583 0 0 1-.581-.582Z"/><path fill="url(#S)" d="M145.597 35.204v2.414h.445V35.44h.833c.32 0 .582.261.582.582v1.596h.454l.005-1.266c0-.35-.083-.605-.27-.824a.884.884 0 0 0-.355-.242 1.335 1.335 0 0 0-.419-.079h-.016v-.003h-1.259Z"/><path fill="url(#T)" d="M135.347 35.207a1.343 1.343 0 0 0-.414.077.881.881 0 0 0-.351.24c-.132.156-.267.355-.267.663v.296c0 .346.082.598.267.814a.874.874 0 0 0 .351.24c.12.046.259.071.414.078h.016v.003h1.046v-.232h-1.013a.577.577 0 0 1-.576-.577s-.018-.268-.018-.417c0-.148.018-.379.018-.379 0-.318.258-.577.576-.577h1.013v-.232l-1.062.003Z"/><path fill="url(#U)" d="M111.504 35.176a.775.775 0 0 0-.339.23.605.605 0 0 0 .001.785.907.907 0 0 0 .366.25c.096.037.205.061.324.074l.025.002c.141.014.298.03.402.15.112.128.134.25.068.363-.145.245-.419.279-.666.279h-.499v.31c.091.01.719 0 .801-.01.336-.034.579-.141.742-.326.127-.146.175-.347.127-.54a.582.582 0 0 0-.128-.245.915.915 0 0 0-.366-.251 1.382 1.382 0 0 0-.282-.058c-.238-.032-.507-.068-.567-.348-.039-.187.127-.334.3-.39a.753.753 0 0 1 .239-.032l.46-.001v-.297c-.081 0-.161-.005-.247-.008a5.57 5.57 0 0 0-.276-.009c-.168 0-.333.016-.485.072Z"/><path fill="url(#V)" d="m104.029 34.456-1.22 2.451h-.045l-.005-.009-1.237-2.442H101v3.157h.437v-2.26l1.154 2.26h.236l1.159-2.334.088-.162v2.496h.467v-3.157h-.512Z"/><path fill="url(#W)" d="M125.968 34.455v3.158h2.126v-.23h-1.683v-1.337h1.126v-.242h-1.126v-1.079h1.683v-.27h-2.126Z"/><path fill="url(#X)" d="m113.295 34.491-.005 2.08.007.078c.022.269.04.482.179.645a.885.885 0 0 0 .355.242c.137.052.297.078.492.078h.19v-.232h-.169a.828.828 0 0 1-.261-.042.433.433 0 0 1-.202-.135.668.668 0 0 1-.123-.255 1.695 1.695 0 0 1-.041-.398l-.002-1.038h.705v-.31h-.706l-.002-.713h-.417Z"/><path fill="url(#Y)" d="M116.131 35.205c-.189.001-.357.03-.502.084a.935.935 0 0 0-.372.254c-.145.17-.164.394-.187.675l-.007.08.005 1.32h.438l.004-1.3c0-.156.014-.296.042-.415a.706.706 0 0 1 .129-.267.455.455 0 0 1 .211-.14.863.863 0 0 1 .275-.038h.189v-.254l-.225.001Z"/><path fill="url(#Z)" d="m143.784 35.204-.013.003a1.288 1.288 0 0 0-.408.077.845.845 0 0 0-.347.237c-.123.144-.264.366-.264.803v.172c0 .342.081.59.264.804a.855.855 0 0 0 .347.237c.117.045.255.07.408.076h.277a1.29 1.29 0 0 0 .408-.076.872.872 0 0 0 .348-.237c.182-.214.263-.462.263-.804v-.172c0-.341-.081-.59-.263-.803a.861.861 0 0 0-.348-.237 1.294 1.294 0 0 0-.409-.077l-.015-.003h-.248Zm-.563 1.49c-.03-.298-.049-.832.182-1.08a.572.572 0 0 1 .416-.18h.18c.464 0 .571.466.597.667a2.52 2.52 0 0 1-.008.724.844.844 0 0 1-.127.327.572.572 0 0 1-.461.235h-.181c-.473 0-.575-.485-.598-.694Z"/><path fill="url(#aa)" d="m137.81 35.2-.013.003a1.4 1.4 0 0 0-.428.08.9.9 0 0 0-.363.248c-.191.224-.277.483-.277.841l.017.305c.031.248.113.444.258.614a.915.915 0 0 0 .573.302c.151.03.294.027.438.029a.99.99 0 0 0 .239-.016l.005-.001a1.93 1.93 0 0 0 .243-.066c.067-.026.126-.06.169-.088l.025-.016v.179h.456V35.2h-1.342Zm-.559 1.587s-.018-.186-.018-.376.019-.376.019-.378c0-.326.267-.592.594-.592h.85v1.157l-.005.19c0 .321-.283.593-.617.593h-.23a.594.594 0 0 1-.593-.594Z"/><path fill="url(#ab)" d="m139.881 34.491-.005 2.081.007.076c.022.27.04.482.179.645a.89.89 0 0 0 .356.243c.136.052.297.078.491.078h.191v-.232h-.17a.86.86 0 0 1-.261-.042.44.44 0 0 1-.202-.135.684.684 0 0 1-.123-.255 1.755 1.755 0 0 1-.041-.398l-.002-1.078h.705v-.27h-.706l-.002-.713h-.417Z"/><path fill="url(#ac)" d="m121.46 35.199-.013.002a1.338 1.338 0 0 0-.41.077.86.86 0 0 0-.348.238c-.184.215-.265.464-.265.807v.173c0 .343.081.591.265.806a.864.864 0 0 0 .348.238c.119.045.256.07.41.077h.277c.154-.006.292-.032.411-.077a.86.86 0 0 0 .347-.237c.184-.216.266-.464.266-.807v-.173c0-.343-.082-.592-.266-.808a.865.865 0 0 0-.347-.237 1.345 1.345 0 0 0-.411-.077l-.015-.002h-.249Zm-.564 1.494c-.033-.297-.05-.835.182-1.083a.569.569 0 0 1 .417-.182h.181c.465 0 .573.47.599.671a2.5 2.5 0 0 1-.008.726.812.812 0 0 1-.128.328.57.57 0 0 1-.462.237h-.182c-.475 0-.578-.487-.599-.697Z"/><path fill="url(#ad)" d="M106.731 35.204v2.414h.444V35.44h.833c.321 0 .582.261.582.582v1.596h.455l.004-1.266c0-.35-.083-.605-.27-.824a.884.884 0 0 0-.355-.242 1.335 1.335 0 0 0-.419-.079h-.016v-.003h-1.258Z"/><path fill="url(#ae)" d="M133.895 25.413a.401.401 0 1 0 .802-.002.401.401 0 0 0-.802.002Z"/><path fill="url(#af)" d="m142.026 26.67-.007 3.22c0 .2-.017.376-.052.525a.892.892 0 0 1-.159.33.546.546 0 0 1-.255.171c-.092.03-.207.046-.344.046h-.016l.036.4h.013c.251 0 .478-.039.674-.113.195-.073.361-.188.492-.337.211-.247.337-.583.373-.998l-.007-3.243h-.748Z"/><path fill="url(#ag)" d="M140.058 25.014v4.696h.732v-4.696h-.732Z"/><path fill="url(#ah)" d="m138.162 26.67-.007 3.22c0 .198-.017.374-.052.525a.92.92 0 0 1-.158.33.556.556 0 0 1-.255.171c-.093.03-.209.046-.345.046h-.016l.036.4h.013c.251 0 .478-.039.674-.113.195-.073.361-.188.492-.337.211-.248.337-.583.373-.998l-.007-3.243h-.748Z"/><path fill="url(#ai)" d="M134.186 26.671c-.87 0-1.575.705-1.575 1.575v1.464h4.188v-3.039h-2.613Zm-.838 1.503a.9.9 0 0 1 .9-.9h1.817v1.798h-2.717v-.898Z"/><path fill="url(#aj)" d="M123.999 25.413a.4.4 0 1 0 .8-.002.4.4 0 0 0-.8.002Z"/><path fill="url(#ak)" d="M105.949 30.938a.4.4 0 1 0 .802-.003.4.4 0 0 0-.802.003Z"/><path fill="url(#al)" d="M107.105 30.938a.4.4 0 1 0 .801-.002.4.4 0 0 0-.801.002Z"/><path fill="url(#am)" d="M125.155 25.413a.4.4 0 1 0 .8 0 .4.4 0 0 0-.8 0Z"/><path fill="url(#an)" d="M135.051 25.413a.402.402 0 0 0 .802 0 .402.402 0 0 0-.802 0Z"/><path fill="url(#ao)" d="M142.01 25.414a.4.4 0 1 0 .802-.003.4.4 0 0 0-.802.003Z"/><path fill="url(#ap)" d="M127.487 25.013v4.059h-1.83V26.67h-.731v2.4h-7.313v-.85c0-.523.424-.948.948-.948h3.121v-.602h-3.184c-.896 0-1.622.726-1.622 1.622v.779h-5.908v-4.06h-.723v4.06h-2.038V26.67h-.732v2.4h-1.384l-.007-.73v-.01c0-.517-.161-.925-.481-1.213-.283-.27-.687-.42-1.199-.447h-2.898l.011 3.093c0 .2-.019.376-.053.526a.9.9 0 0 1-.159.331.551.551 0 0 1-.255.17c-.015.005-.034.007-.05.011v.418c.148-.017.287-.048.413-.095.195-.075.361-.188.492-.337.211-.248.337-.583.373-.998v-.08h25.964v-4.697h-.755Zm-25.216 2.308c0-.026.022-.048.048-.048h2.174l.087.016c.439.08.756.462.756.907v.876h-3.06l-.005-1.751Z"/><path fill="url(#aq)" d="M145.329 26.671c-.882 0-1.597.716-1.597 1.599v1.44h3.426v.18c0 .198-.018.376-.053.525a.895.895 0 0 1-.158.332.555.555 0 0 1-.256.17.826.826 0 0 1-.129.028v.41c.179-.015.344-.05.492-.105.195-.074.362-.187.493-.337.211-.247.337-.584.373-.999l-.003-3.243h-2.588Zm-.861 1.527c0-.51.413-.925.923-.925h1.773v.024l-.004 1.775h-2.692v-.874Z"/><path fill="url(#ar)" d="M129.351 25.013a.011.011 0 0 0-.011.01V29.7c0 .006.005.011.011.011h.71c.006 0 .01-.005.01-.01v-4.676c0-.006-.004-.011-.01-.011h-.71Z"/><defs><linearGradient id="a" x1="93.612" x2="153.506" y1="61.355" y2="7.907" gradientUnits="userSpaceOnUse"><stop stop-color="#297EB5"/><stop offset=".267" stop-color="#297EB5"/><stop offset="1" stop-color="#41AF70"/></linearGradient><linearGradient id="b" x1="90.144" x2="150.038" y1="57.47" y2="4.021" gradientUnits="userSpaceOnUse"><stop stop-color="#297EB5"/><stop offset=".145" stop-color="#297EB5"/><stop offset="1" stop-color="#41AF70"/></linearGradient><linearGradient id="c" x1="91.719" x2="151.613" y1="59.235" y2="5.786" gradientUnits="userSpaceOnUse"><stop stop-color="#297EB5"/><stop offset=".145" stop-color="#297EB5"/><stop offset="1" stop-color="#41AF70"/></linearGradient><linearGradient id="d" x1="89.131" x2="149.025" y1="56.335" y2="2.886" gradientUnits="userSpaceOnUse"><stop stop-color="#297EB5"/><stop offset=".145" stop-color="#297EB5"/><stop offset="1" stop-color="#41AF70"/></linearGradient><linearGradient id="e" x1="73.956" x2="133.851" y1="39.33" y2="-14.119" gradientUnits="userSpaceOnUse"><stop stop-color="#297EB5"/><stop offset=".145" stop-color="#297EB5"/><stop offset="1" stop-color="#41AF70"/></linearGradient><linearGradient id="f" x1="78.372" x2="138.266" y1="44.278" y2="-9.17" gradientUnits="userSpaceOnUse"><stop stop-color="#297EB5"/><stop offset=".145" stop-color="#297EB5"/><stop offset="1" stop-color="#41AF70"/></linearGradient><linearGradient id="g" x1="75.985" x2="135.879" y1="41.603" y2="-11.845" gradientUnits="userSpaceOnUse"><stop stop-color="#297EB5"/><stop offset=".145" stop-color="#297EB5"/><stop offset="1" stop-color="#41AF70"/></linearGradient><linearGradient id="h" x1="87.078" x2="146.972" y1="54.033" y2=".585" gradientUnits="userSpaceOnUse"><stop stop-color="#297EB5"/><stop offset=".145" stop-color="#297EB5"/><stop offset="1" stop-color="#41AF70"/></linearGradient><linearGradient id="i" x1="88.993" x2="148.888" y1="56.181" y2="2.732" gradientUnits="userSpaceOnUse"><stop stop-color="#297EB5"/><stop offset=".145" stop-color="#297EB5"/><stop offset="1" stop-color="#41AF70"/></linearGradient><linearGradient id="j" x1="83.516" x2="143.41" y1="50.042" y2="-3.406" gradientUnits="userSpaceOnUse"><stop stop-color="#297EB5"/><stop offset=".145" stop-color="#297EB5"/><stop offset="1" stop-color="#41AF70"/></linearGradient><linearGradient id="k" x1="84.048" x2="143.943" y1="50.639" y2="-2.809" gradientUnits="userSpaceOnUse"><stop stop-color="#297EB5"/><stop offset=".145" stop-color="#297EB5"/><stop offset="1" stop-color="#41AF70"/></linearGradient><linearGradient id="l" x1="84.961" x2="144.855" y1="51.662" y2="-1.787" gradientUnits="userSpaceOnUse"><stop stop-color="#297EB5"/><stop offset=".145" stop-color="#297EB5"/><stop offset="1" stop-color="#41AF70"/></linearGradient><linearGradient id="m" x1="86.152" x2="146.047" y1="52.997" y2="-.452" gradientUnits="userSpaceOnUse"><stop stop-color="#297EB5"/><stop offset=".145" stop-color="#297EB5"/><stop offset="1" stop-color="#41AF70"/></linearGradient><linearGradient id="n" x1="87.512" x2="147.407" y1="54.521" y2="1.072" gradientUnits="userSpaceOnUse"><stop stop-color="#297EB5"/><stop offset=".145" stop-color="#297EB5"/><stop offset="1" stop-color="#41AF70"/></linearGradient><linearGradient id="o" x1="91.4" x2="151.294" y1="58.877" y2="5.428" gradientUnits="userSpaceOnUse"><stop stop-color="#297EB5"/><stop offset=".145" stop-color="#297EB5"/><stop offset="1" stop-color="#41AF70"/></linearGradient><linearGradient id="p" x1="85.909" x2="145.804" y1="52.724" y2="-.724" gradientUnits="userSpaceOnUse"><stop stop-color="#297EB5"/><stop offset=".145" stop-color="#297EB5"/><stop offset="1" stop-color="#41AF70"/></linearGradient><linearGradient id="q" x1="86.316" x2="146.21" y1="53.18" y2="-.268" gradientUnits="userSpaceOnUse"><stop stop-color="#297EB5"/><stop offset=".145" stop-color="#297EB5"/><stop offset="1" stop-color="#41AF70"/></linearGradient><linearGradient id="r" x1="88.191" x2="148.085" y1="55.281" y2="1.833" gradientUnits="userSpaceOnUse"><stop stop-color="#297EB5"/><stop offset=".145" stop-color="#297EB5"/><stop offset="1" stop-color="#41AF70"/></linearGradient><linearGradient id="s" x1="89.623" x2="149.518" y1="56.886" y2="3.438" gradientUnits="userSpaceOnUse"><stop stop-color="#297EB5"/><stop offset=".145" stop-color="#297EB5"/><stop offset="1" stop-color="#41AF70"/></linearGradient><linearGradient id="t" x1="69.582" x2="129.476" y1="34.428" y2="-19.02" gradientUnits="userSpaceOnUse"><stop stop-color="#297EB5"/><stop offset=".145" stop-color="#297EB5"/><stop offset="1" stop-color="#41AF70"/></linearGradient><linearGradient id="u" x1="80.715" x2="140.61" y1="46.904" y2="-6.544" gradientUnits="userSpaceOnUse"><stop stop-color="#297EB5"/><stop offset=".145" stop-color="#297EB5"/><stop offset="1" stop-color="#41AF70"/></linearGradient><linearGradient id="v" x1="78.189" x2="138.083" y1="44.073" y2="-9.375" gradientUnits="userSpaceOnUse"><stop stop-color="#297EB5"/><stop offset=".145" stop-color="#297EB5"/><stop offset="1" stop-color="#41AF70"/></linearGradient><linearGradient id="w" x1="75.871" x2="135.765" y1="41.476" y2="-11.973" gradientUnits="userSpaceOnUse"><stop stop-color="#297EB5"/><stop offset=".145" stop-color="#297EB5"/><stop offset="1" stop-color="#41AF70"/></linearGradient><linearGradient id="x" x1="73.703" x2="133.597" y1="39.046" y2="-14.403" gradientUnits="userSpaceOnUse"><stop stop-color="#297EB5"/><stop offset=".145" stop-color="#297EB5"/><stop offset="1" stop-color="#41AF70"/></linearGradient><linearGradient id="y" x1="71.653" x2="131.548" y1="36.749" y2="-16.699" gradientUnits="userSpaceOnUse"><stop stop-color="#297EB5"/><stop offset=".145" stop-color="#297EB5"/><stop offset="1" stop-color="#41AF70"/></linearGradient><linearGradient id="z" x1="71.872" x2="131.766" y1="36.995" y2="-16.454" gradientUnits="userSpaceOnUse"><stop stop-color="#297EB5"/><stop offset=".145" stop-color="#297EB5"/><stop offset="1" stop-color="#41AF70"/></linearGradient><linearGradient id="A" x1="83.26" x2="143.154" y1="49.755" y2="-3.693" gradientUnits="userSpaceOnUse"><stop stop-color="#297EB5"/><stop offset=".145" stop-color="#297EB5"/><stop offset="1" stop-color="#41AF70"/></linearGradient><linearGradient id="B" x1="80.679" x2="140.573" y1="46.863" y2="-6.585" gradientUnits="userSpaceOnUse"><stop stop-color="#297EB5"/><stop offset=".145" stop-color="#297EB5"/><stop offset="1" stop-color="#41AF70"/></linearGradient><linearGradient id="C" x1="78.216" x2="138.11" y1="44.103" y2="-9.345" gradientUnits="userSpaceOnUse"><stop stop-color="#297EB5"/><stop offset=".145" stop-color="#297EB5"/><stop offset="1" stop-color="#41AF70"/></linearGradient><linearGradient id="D" x1="75.924" x2="135.818" y1="41.535" y2="-11.914" gradientUnits="userSpaceOnUse"><stop stop-color="#297EB5"/><stop offset=".145" stop-color="#297EB5"/><stop offset="1" stop-color="#41AF70"/></linearGradient><linearGradient id="E" x1="73.785" x2="133.679" y1="39.138" y2="-14.31" gradientUnits="userSpaceOnUse"><stop stop-color="#297EB5"/><stop offset=".145" stop-color="#297EB5"/><stop offset="1" stop-color="#41AF70"/></linearGradient><linearGradient id="F" x1="80.923" x2="140.818" y1="47.138" y2="-6.311" gradientUnits="userSpaceOnUse"><stop stop-color="#297EB5"/><stop offset=".145" stop-color="#297EB5"/><stop offset="1" stop-color="#41AF70"/></linearGradient><linearGradient id="G" x1="83.263" x2="143.157" y1="49.758" y2="-3.69" gradientUnits="userSpaceOnUse"><stop stop-color="#297EB5"/><stop offset=".145" stop-color="#297EB5"/><stop offset="1" stop-color="#41AF70"/></linearGradient><linearGradient id="H" x1="85.939" x2="145.833" y1="52.758" y2="-.691" gradientUnits="userSpaceOnUse"><stop stop-color="#297EB5"/><stop offset=".145" stop-color="#297EB5"/><stop offset="1" stop-color="#41AF70"/></linearGradient><linearGradient id="I" x1="94.444" x2="154.338" y1="62.288" y2="8.84" gradientUnits="userSpaceOnUse"><stop stop-color="#297EB5"/><stop offset=".145" stop-color="#297EB5"/><stop offset="1" stop-color="#41AF70"/></linearGradient><linearGradient id="J" x1="92.335" x2="152.23" y1="59.925" y2="6.477" gradientUnits="userSpaceOnUse"><stop stop-color="#297EB5"/><stop offset=".145" stop-color="#297EB5"/><stop offset="1" stop-color="#41AF70"/></linearGradient><linearGradient id="K" x1="85.737" x2="145.632" y1="52.532" y2="-.917" gradientUnits="userSpaceOnUse"><stop stop-color="#297EB5"/><stop offset=".145" stop-color="#297EB5"/><stop offset="1" stop-color="#41AF70"/></linearGradient><linearGradient id="L" x1="86.589" x2="146.484" y1="53.487" y2=".038" gradientUnits="userSpaceOnUse"><stop stop-color="#297EB5"/><stop offset=".145" stop-color="#297EB5"/><stop offset="1" stop-color="#41AF70"/></linearGradient><linearGradient id="M" x1="87.711" x2="147.605" y1="54.743" y2="1.295" gradientUnits="userSpaceOnUse"><stop stop-color="#297EB5"/><stop offset=".145" stop-color="#297EB5"/><stop offset="1" stop-color="#41AF70"/></linearGradient><linearGradient id="N" x1="88.558" x2="148.452" y1="55.692" y2="2.244" gradientUnits="userSpaceOnUse"><stop stop-color="#297EB5"/><stop offset=".145" stop-color="#297EB5"/><stop offset="1" stop-color="#41AF70"/></linearGradient><linearGradient id="O" x1="101.777" x2="161.671" y1="70.505" y2="17.057" gradientUnits="userSpaceOnUse"><stop stop-color="#297EB5"/><stop offset=".145" stop-color="#297EB5"/><stop offset="1" stop-color="#41AF70"/></linearGradient><linearGradient id="P" x1="102.635" x2="162.529" y1="71.467" y2="18.018" gradientUnits="userSpaceOnUse"><stop stop-color="#297EB5"/><stop offset=".145" stop-color="#297EB5"/><stop offset="1" stop-color="#41AF70"/></linearGradient><linearGradient id="Q" x1="98.508" x2="158.403" y1="66.843" y2="13.395" gradientUnits="userSpaceOnUse"><stop stop-color="#297EB5"/><stop offset=".145" stop-color="#297EB5"/><stop offset="1" stop-color="#41AF70"/></linearGradient><linearGradient id="R" x1="96.999" x2="156.894" y1="65.152" y2="11.704" gradientUnits="userSpaceOnUse"><stop stop-color="#297EB5"/><stop offset=".145" stop-color="#297EB5"/><stop offset="1" stop-color="#41AF70"/></linearGradient><linearGradient id="S" x1="104.799" x2="164.694" y1="73.893" y2="20.444" gradientUnits="userSpaceOnUse"><stop stop-color="#297EB5"/><stop offset=".145" stop-color="#297EB5"/><stop offset="1" stop-color="#41AF70"/></linearGradient><linearGradient id="T" x1="99.745" x2="159.639" y1="68.229" y2="14.78" gradientUnits="userSpaceOnUse"><stop stop-color="#297EB5"/><stop offset=".145" stop-color="#297EB5"/><stop offset="1" stop-color="#41AF70"/></linearGradient><linearGradient id="U" x1="89.333" x2="149.227" y1="56.56" y2="3.112" gradientUnits="userSpaceOnUse"><stop stop-color="#297EB5"/><stop offset=".145" stop-color="#297EB5"/><stop offset="1" stop-color="#41AF70"/></linearGradient><linearGradient id="V" x1="85.101" x2="144.996" y1="51.819" y2="-1.629" gradientUnits="userSpaceOnUse"><stop stop-color="#297EB5"/><stop offset=".145" stop-color="#297EB5"/><stop offset="1" stop-color="#41AF70"/></linearGradient><linearGradient id="W" x1="95.862" x2="155.757" y1="63.878" y2="10.43" gradientUnits="userSpaceOnUse"><stop stop-color="#297EB5"/><stop offset=".145" stop-color="#297EB5"/><stop offset="1" stop-color="#41AF70"/></linearGradient><linearGradient id="X" x1="90.048" x2="149.942" y1="57.362" y2="3.914" gradientUnits="userSpaceOnUse"><stop stop-color="#297EB5"/><stop offset=".145" stop-color="#297EB5"/><stop offset="1" stop-color="#41AF70"/></linearGradient><linearGradient id="Y" x1="91.027" x2="150.922" y1="58.46" y2="5.012" gradientUnits="userSpaceOnUse"><stop stop-color="#297EB5"/><stop offset=".145" stop-color="#297EB5"/><stop offset="1" stop-color="#41AF70"/></linearGradient><linearGradient id="Z" x1="103.535" x2="163.43" y1="72.476" y2="19.028" gradientUnits="userSpaceOnUse"><stop stop-color="#297EB5"/><stop offset=".145" stop-color="#297EB5"/><stop offset="1" stop-color="#41AF70"/></linearGradient><linearGradient id="aa" x1="100.889" x2="160.783" y1="69.511" y2="16.063" gradientUnits="userSpaceOnUse"><stop stop-color="#297EB5"/><stop offset=".145" stop-color="#297EB5"/><stop offset="1" stop-color="#41AF70"/></linearGradient><linearGradient id="ab" x1="101.841" x2="161.735" y1="70.577" y2="17.129" gradientUnits="userSpaceOnUse"><stop stop-color="#297EB5"/><stop offset=".145" stop-color="#297EB5"/><stop offset="1" stop-color="#41AF70"/></linearGradient><linearGradient id="ac" x1="93.633" x2="153.527" y1="61.38" y2="7.931" gradientUnits="userSpaceOnUse"><stop stop-color="#297EB5"/><stop offset=".145" stop-color="#297EB5"/><stop offset="1" stop-color="#41AF70"/></linearGradient><linearGradient id="ad" x1="87.559" x2="147.453" y1="54.573" y2="1.125" gradientUnits="userSpaceOnUse"><stop stop-color="#297EB5"/><stop offset=".145" stop-color="#297EB5"/><stop offset="1" stop-color="#41AF70"/></linearGradient><linearGradient id="ae" x1="93.811" x2="153.705" y1="61.579" y2="8.131" gradientUnits="userSpaceOnUse"><stop stop-color="#297EB5"/><stop offset=".145" stop-color="#297EB5"/><stop offset="1" stop-color="#41AF70"/></linearGradient><linearGradient id="af" x1="99.012" x2="158.906" y1="67.407" y2="13.959" gradientUnits="userSpaceOnUse"><stop stop-color="#297EB5"/><stop offset=".145" stop-color="#297EB5"/><stop offset="1" stop-color="#41AF70"/></linearGradient><linearGradient id="ag" x1="97.497" x2="157.392" y1="65.71" y2="12.262" gradientUnits="userSpaceOnUse"><stop stop-color="#297EB5"/><stop offset=".145" stop-color="#297EB5"/><stop offset="1" stop-color="#41AF70"/></linearGradient><linearGradient id="ah" x1="97.298" x2="157.192" y1="65.486" y2="12.038" gradientUnits="userSpaceOnUse"><stop stop-color="#297EB5"/><stop offset=".145" stop-color="#297EB5"/><stop offset="1" stop-color="#41AF70"/></linearGradient><linearGradient id="ai" x1="95.372" x2="155.266" y1="63.328" y2="9.88" gradientUnits="userSpaceOnUse"><stop stop-color="#297EB5"/><stop offset=".145" stop-color="#297EB5"/><stop offset="1" stop-color="#41AF70"/></linearGradient><linearGradient id="aj" x1="89.422" x2="149.316" y1="56.66" y2="3.211" gradientUnits="userSpaceOnUse"><stop stop-color="#297EB5"/><stop offset=".145" stop-color="#297EB5"/><stop offset="1" stop-color="#41AF70"/></linearGradient><linearGradient id="ak" x1="84.158" x2="144.052" y1="50.762" y2="-2.687" gradientUnits="userSpaceOnUse"><stop stop-color="#297EB5"/><stop offset=".145" stop-color="#297EB5"/><stop offset="1" stop-color="#41AF70"/></linearGradient><linearGradient id="al" x1="84.671" x2="144.565" y1="51.336" y2="-2.112" gradientUnits="userSpaceOnUse"><stop stop-color="#297EB5"/><stop offset=".145" stop-color="#297EB5"/><stop offset="1" stop-color="#41AF70"/></linearGradient><linearGradient id="am" x1="89.934" x2="149.828" y1="57.235" y2="3.786" gradientUnits="userSpaceOnUse"><stop stop-color="#297EB5"/><stop offset=".145" stop-color="#297EB5"/><stop offset="1" stop-color="#41AF70"/></linearGradient><linearGradient id="an" x1="94.324" x2="154.218" y1="62.154" y2="8.705" gradientUnits="userSpaceOnUse"><stop stop-color="#297EB5"/><stop offset=".145" stop-color="#297EB5"/><stop offset="1" stop-color="#41AF70"/></linearGradient><linearGradient id="ao" x1="97.411" x2="157.305" y1="65.612" y2="12.164" gradientUnits="userSpaceOnUse"><stop stop-color="#297EB5"/><stop offset=".145" stop-color="#297EB5"/><stop offset="1" stop-color="#41AF70"/></linearGradient><linearGradient id="ap" x1="86.426" x2="146.321" y1="53.304" y2="-.145" gradientUnits="userSpaceOnUse"><stop stop-color="#297EB5"/><stop offset=".145" stop-color="#297EB5"/><stop offset="1" stop-color="#41AF70"/></linearGradient><linearGradient id="aq" x1="100.713" x2="160.607" y1="69.314" y2="15.865" gradientUnits="userSpaceOnUse"><stop stop-color="#297EB5"/><stop offset=".145" stop-color="#297EB5"/><stop offset="1" stop-color="#41AF70"/></linearGradient><linearGradient id="ar" x1="92.742" x2="152.637" y1="60.382" y2="6.933" gradientUnits="userSpaceOnUse"><stop stop-color="#297EB5"/><stop offset=".145" stop-color="#297EB5"/><stop offset="1" stop-color="#41AF70"/></linearGradient></defs></svg>