<?xml version="1.0" encoding="utf-8"?>
<!-- Generator: Adobe Illustrator 30.1.0, SVG Export Plug-In . SVG Version: 9.03 Build 0)  -->
<svg version="1.0" id="Layer_1" xmlns="http://www.w3.org/2000/svg" xmlns:xlink="http://www.w3.org/1999/xlink" x="0px" y="0px"
	 viewBox="0 0 494.38 616.2" style="enable-background:new 0 0 494.38 616.2;" xml:space="preserve">
<g transform="translate(0.000000,5020.000000) scale(0.100000,-0.100000)">
	<path d="M1437.55,48829.61v-275.72l17.07,1.04c30.9,1.73,119.35,1.04,144.38-1.15c106.44-9.34,203.65-29.52,308.47-63.89
		c72.3-23.75,151.76-56.39,204.92-84.29l14.65-7.73l4.38,4.15c2.42,2.31,43.36,38.86,90.87,81.18c47.63,42.44,86.6,77.61,86.83,78.3
		c0.35,1.73-16.49,11.53-37.94,22.02c-82.11,40.25-220.6,74.5-397.73,98.48c-37.48,5.07-97.33,11.88-123.39,14.07
		c-9.23,0.81-17.18,1.84-17.76,2.3c-0.81,0.7,67,135.96,69.54,138.5c1.04,1.15,54.43-0.92,79.57-3.11
		c105.17-9,226.02-35.63,351.14-77.26c75.07-25.02,159.6-58.46,226.25-89.71l20.53-9.57l19.03,11.3
		c21.79,12.92,65.15,35.17,90.64,46.47c104.48,46.36,233.29,81.99,374.78,103.67c57.08,8.76,137.34,17.18,172.28,18.11l8.65,0.23
		l32.06-74.84c17.64-41.17,32.29-75.65,32.63-76.57c0.46-1.62-5.07-1.96-46.93-3.23c-62.73-1.96-96.75-4.15-149.68-10.15
		c-125.93-14.07-241.01-42.09-336.15-81.99c-17.07-7.15-52.47-24.56-52.47-25.83c0-0.35,4.27-4.04,9.57-8.07
		c54.89-42.09,115.55-94.56,163.63-141.61l16.95-16.49l32.63,13.26c190.5,77.84,368.55,127.43,520.08,144.95
		c38.29,4.38,67,6,103.55,5.54l34.59-0.35v271.92v271.8H2471.36H1437.55V48829.61z"/>
	<path d="M2370.8,48400.4c-54.78-41.4-99.52-75.42-99.52-75.76c0.12-1.5,203.19-151.18,204.46-150.72
		c2.08,0.92,188.2,148.41,188.54,149.57c0.46,1.15-189.81,151.29-192.35,151.75C2471.01,48475.36,2425.46,48441.68,2370.8,48400.4z"
		/>
	<path d="M1437.55,47949.05v-450.66l53.39-0.12c54.78-0.12,79.11-1.27,130.54-6.34c273.3-26.87,540.49-122.93,751.06-270.07
		c9.69-6.8,17.87-12.34,18.22-12.34c0.23,0,0.46,144.61,0.46,321.27c0,210.34-0.35,321.16-1.15,320.81
		c-1.73-0.57-25.72-32.05-45.43-59.73c-43.47-60.89-79.68-120.97-103.44-171.82c-5.42-11.76-10.61-23.29-11.53-25.6
		c-0.81-2.42-1.84-4.38-2.19-4.38s-25.37,24.79-55.7,55.12l-55.12,55.12l18.34,29.98c108.17,176.9,194.08,299.13,227.17,323.35
		l7.03,5.07l-7.61,8.42c-23.18,25.83-74.84,68.5-117.39,96.87c-28.37,18.91-78.3,47.62-82.91,47.62c-2.31,0-28.25-25.83-47.4-47.39
		c-68.96-77.49-127.08-170.09-168.59-268.57c-3.34-7.95-6.57-14.3-7.27-14.07c-0.69,0.11-26.52,23.41-57.54,51.78l-56.39,51.66
		l7.61,14.41c71.03,135.5,132.27,232.82,174.82,277.68c4.38,4.61,7.73,8.54,7.38,8.88c-1.38,1.38-38.29,17.18-55.7,23.99
		c-118.89,45.55-260.73,75.53-405.34,85.56c-30.33,2.08-78.3,4.04-99.98,4.04h-15.34V47949.05z"/>
	<path d="M3455.01,48398.79c-171.59-5.54-339.61-37.71-474.53-90.87c-19.14-7.5-49.12-20.53-50.51-21.91
		c-0.35-0.23,2.88-4.27,7.15-8.76c30.21-31.95,74.15-96.87,121.08-178.97c15.8-27.56,40.82-73.69,52.24-95.95l8.76-17.3l-6.8-6.46
		c-29.52-28.02-107.13-97.79-107.71-97.1c-0.46,0.46-4.84,10.5-9.8,22.14c-43.94,103.79-114.39,210.11-190.16,287.02
		c-11.42,11.53-21.56,20.99-22.6,20.99c-2.42,0-38.98-20.07-58.81-32.17c-36.79-22.6-76.57-52.12-107.24-79.57
		c-14.3-12.8-31.94-29.87-36.9-35.86l-4.38-5.3l8.53-6.69c8.3-6.57,23.64-23.06,38.05-41.05
		c37.94-47.05,108.86-152.91,177.47-264.65c11.3-18.34,22.26-36.32,24.33-39.79l3.92-6.34l-55.01-55
		c-30.33-30.33-55.35-55.12-55.7-55.12s-2.88,5.3-5.65,11.88c-27.91,64.93-80.61,150.61-143.11,232.48
		c-7.26,9.57-13.61,17.41-14.07,17.41c-0.58,0-0.92-144.61-0.92-321.27c0-256.58,0.35-321.04,1.5-320.35
		c0.69,0.46,7.84,5.42,15.8,10.96c204.8,142.3,452.27,234.55,716.12,266.84c62.73,7.61,105.75,10.26,167.44,10.38h51.66v450.66
		v450.54l-20.41-0.23C3473.46,48399.25,3460.08,48399.02,3455.01,48398.79z"/>
	<path d="M1594.38,46613.34v-131.46h-87.29c-83.03,0-93.29,0.34-107.82,3.34c-9.92,2.07-9.8,1.84-5.19,14.07
		c6.46,17.3,22.37,76.57,20.87,78.19c-0.12,0.11-14.07-4.5-30.79-10.27l-30.44-10.72l-1.96-15.68
		c-2.08-16.95-7.61-46.24-10.26-53.74l-1.61-4.61h-72.53c-71.38,0-72.76,0.12-84.64,2.65c-16.72,3.69-32.63,9.11-53.62,18.45
		l-17.87,7.96l-11.53-22.49c-6.46-12.34-11.19-22.83-10.72-23.29c0.46-0.35,6.11-3,12.45-5.65c21.22-9.11,33.9-18.34,35.86-26.06
		c2.77-10.95-9.34-25.83-28.14-34.71c-35.4-16.72-94.44-20.18-129.15-7.5c-30.1,10.95-44.4,32.98-42.44,65.27
		c0.69,11.88,4.27,29.06,9.23,44.74c2.42,7.73,2.54,9.11,1.04,9.69c-4.04,1.61-43.47,14.07-43.7,13.84
		c-0.12-0.11-2.08-5.19-4.27-11.3c-6.23-16.49-9.57-28.83-12.34-45.55c-3.34-19.26-2.77-45.55,1.15-59.27
		c11.76-41.05,43.47-65.27,97.44-74.61c16.26-2.77,60.54-2.77,78.99,0c31.14,4.73,55.58,13.61,75.76,27.56
		c10.84,7.5,25.25,22.6,31.48,32.98c5.54,9.46,11.07,24.45,12.11,33.09l0.81,5.88l7.03-1.73c5.88-1.38,20.87-1.73,87.41-2.07
		l80.26-0.46l4.5,7.61c3.11,5.07,5.07,7.38,6.23,7.04c0.92-0.35,8.53-2.88,16.72-5.77c26.75-9.23,11.53-8.77,259.81-8.77
		c208.84,0,220.37,0.12,220.95,2.08c1.38,4.5,5.42,28.02,6.46,37.71c0.58,5.77,1.15,18.11,1.15,27.56
		c0,55.93-19.26,95.71-54.66,113.13c-12.57,6.23-20.3,8.3-36.79,10.03c-29.41,3.23-58.58-4.5-85.91-22.49
		c-17.3-11.41-31.25-24.68-48.55-45.78l-2.31-2.88l-0.12,97.79v97.68h-26.52h-26.52V46613.34z M1778.42,46567.1
		c20.99-3.81,34.83-18.91,40.82-44.05c2.31-9.69,4.61-27.45,4.61-36.21v-4.96h-87.18h-87.18l7.84,11.3
		C1694.24,46546.68,1739.44,46574.25,1778.42,46567.1z"/>
	<path d="M2248.22,46613.34v-131.46h-71.5c-63.54,0-71.5,0.23-71.5,1.73c0,5.07-2.65,25.49-4.61,34.6
		c-5.42,26.18-14.99,45.55-30.56,61.23c-14.65,14.88-27.1,20.88-47.4,22.95c-40.01,3.92-79.91-27.56-91.68-72.65
		c-3.46-13.38-4.27-35.52-1.73-47.05c5.19-23.06,20.18-38.52,45.67-46.93c12.57-4.04,27.56-5.77,52.24-5.77
		c12.45,0,22.72-0.23,22.72-0.57c0-0.35-1.38-3.35-3-6.69c-4.84-9.45-19.95-23.87-30.44-28.83c-13.84-6.57-21.45-8.19-39.21-8.19
		c-16.38-0.11-27.79,2.07-48.32,9.11l-8.19,2.77l-8.65-17.18c-4.73-9.57-8.65-17.64-8.65-18.11c0-1.73,13.26-10.72,23.06-15.8
		c28.14-14.53,65.15-18.45,93.41-9.69c35.06,10.84,62.73,40.59,77.26,83.38l3.11,9.23l100.44,0.34l100.56,0.23v157.41v157.41h-26.52
		h-26.52V46613.34z M2027.62,46545.76c13.03-7.61,26.18-33.79,28.37-56.62l0.81-7.26h-23.41c-15.8,0-25.83,0.57-31.14,1.73
		c-19.95,4.15-28.14,14.88-24.91,32.29C1982.3,46543.11,2007.09,46557.87,2027.62,46545.76z"/>
	<path d="M2364.69,46587.39v-157.41h26.52h26.52v157.41v157.41h-26.52h-26.52V46587.39z"/>
	<path d="M3890.33,46613.34v-131.58l-66.54,0.35l-66.65,0.34l-5.42,2.65c-10.03,4.96-15.8,13.84-26.75,40.94
		c-24.1,59.73-45.9,81.53-81.41,81.53c-11.53,0-21.56-2.54-32.4-8.19c-21.45-11.19-37.13-29.06-63.89-73.11
		c-18.34-30.21-26.75-40.25-36.21-43.01c-4.73-1.5-130.42-2.08-138.73-0.69l-4.27,0.69l7.03,8.19
		c19.03,22.14,28.48,44.28,28.6,66.77c0.12,39.67-26.64,59.96-82.45,62.84c-28.71,1.39-68.61-6-98.25-18.33l-8.42-3.46v-33.56
		v-33.67l23.18-23.18c22.6-22.72,23.18-23.3,19.95-23.99c-11.3-2.42-29.18-2.88-103.9-3h-83.26l2.88,6.23
		c17.07,37.25-1.27,88.79-47.51,133.3c-11.19,10.84-25.02,21.91-27.21,21.91c-0.58,0-10.26-7.27-21.56-16.14l-20.53-16.14
		l-9.57-24.45c-11.65-29.98-24.56-66.31-31.25-88.33l-4.96-16.49l-55.47,0.35l-55.35,0.34l-6.34,3.57c-4.27,2.42-8.19,6-12.11,11.19
		c-3.11,4.15-23.18,38.05-44.4,75.42c-21.33,37.25-39.32,67.8-40.13,67.8c-1.38,0-39.44-48.09-39.44-49.93
		c0-0.69,15.45-25.02,34.48-54.08c18.91-29.06,34.13-53.05,33.9-53.39c-0.35-0.35-31.25-0.81-68.84-1.15l-68.27-0.58l4.61-25.6
		l4.61-25.71h61.92c49.7,0,63.77,0.35,71.73,1.73c11.42,1.96,20.41,5.07,26.18,9l3.92,2.77l8.19-4.38
		c16.03-8.53,14.3-8.42,76.8-8.88l56.04-0.34l-0.58-9.23c-2.42-42.21,25.49-76.69,69.42-85.8c20.18-4.04,49.01-3.34,67.69,1.85
		c18.34,5.07,34.59,16.61,41.63,29.52c9.57,17.41,8.76,39.55-1.84,57.2l-4.04,6.57h75.42c74.26,0,87.99,0.46,109.55,4.15
		c12.11,1.96,34.02,7.38,43.47,10.72l6.69,2.31l7.5-3.46c10.26-4.61,24.33-8.53,39.9-11.07c11.76-1.84,20.99-2.07,88.68-2.07h75.53
		l7.5,2.77c4.15,1.5,9.57,4.15,12.11,5.88c4.84,3.34,16.84,15.57,20.87,21.1l2.19,3.23l7.38-5.88c30.44-24.33,64.69-37.02,96.4-35.4
		c19.26,1.04,33.67,5.77,46.01,15.22l5.42,4.04l4.84-2.77c2.65-1.5,8.53-4.04,12.92-5.54l8.07-2.65l99.52-0.35l99.4-0.34v157.52
		v157.41h-27.1h-27.1V46613.34z M3014.27,46556.6c11.53-20.29,14.88-40.59,8.99-53.74c-3.81-8.42-11.76-15.34-21.33-18.45
		c-6.23-2.07-10.38-2.54-22.72-2.54c-13.72,0-14.99,0.11-14.41,2.07c6.57,23.29,25.37,81.99,30.21,94.1
		c0.81,2.08,1.61,1.5,7.38-4.73C3005.85,46569.4,3011.27,46561.91,3014.27,46556.6z M3332.66,46566.75
		c17.3-5.19,22.03-17.64,13.26-34.94c-6.57-13.03-27.45-32.98-32.06-30.79c-2.19,1.04-57.77,58.12-57.77,59.39
		c0,1.73,24.1,6.34,44.4,8.42C3308.56,46569.63,3327.01,46568.48,3332.66,46566.75z M3651.05,46550.95
		c8.19-5.42,16.49-20.41,29.06-52.36c3.57-8.88,7.38-18.11,8.53-20.41l2.19-4.15l-7.73-0.92c-20.18-2.07-49.59,4.04-71.27,14.76
		c-8.65,4.38-22.49,12.8-22.49,13.72c0,0.34,2.88,5.3,6.46,10.95C3618.41,46548.76,3636.06,46560.98,3651.05,46550.95z
		 M3003.2,46428.83c17.53-2.19,28.25-7.5,32.63-16.14c4.73-9.34,1.73-18.68-7.73-23.98c-6.92-3.81-21.22-5.54-32.4-3.92
		c-14.07,1.96-21.68,5.3-29.18,12.8c-7.5,7.61-10.26,14.3-10.26,25.14v7.27h18.8C2985.32,46429.98,2998.01,46429.41,3003.2,46428.83
		z"/>
	<path d="M4006.8,46587.39v-157.41h27.1h27.1v157.41v157.41h-27.1h-27.1V46587.39z"/>
	<path d="M1365.24,46678.61c-9.69-10.49-17.64-19.37-17.64-19.95c0-1.38,37.36-38.4,38.63-38.29c1.5,0.12,35.75,37.13,35.52,38.4
		c-0.35,1.61-36.32,38.75-37.59,38.75C1383.35,46697.52,1374.81,46688.98,1365.24,46678.61z"/>
	<path d="M966.94,46283.88l-18.1-19.26l19.14-20.07l19.26-19.95l6.92,7.27c3.81,4.04,12.11,12.68,18.22,19.38l11.3,12.11
		l18.68-19.49l18.68-19.37l18.22,19.6c9.92,10.73,18.1,20.07,18.1,20.64c0,0.46-8.53,9.46-19.03,19.95l-19.14,19.03l-6-6.34
		c-3.34-3.46-11.3-11.99-17.87-19.03l-11.76-12.68l-18.8,18.8c-10.26,10.26-18.91,18.68-19.26,18.68
		S976.86,46294.37,966.94,46283.88z"/>
	<path d="M1469.83,46089.69v-93.52l-33.1,0.58c-35.17,0.46-43.94,1.61-42.32,5.3c4.84,11.64,18.57,60.77,17.3,62.04
		c-0.23,0.23-10.26-3-22.37-7.15l-21.91-7.73l-0.81-8.19c-0.92-9.8-4.61-30.1-7.03-38.52l-1.73-6.11h-24.91
		c-22.83,0-25.37,0.23-29.87,2.42c-6.34,3-11.53,10.72-17.76,26.52c-8.99,22.6-16.95,36.44-26.52,46.12
		c-10.72,10.96-17.64,13.95-31.71,14.07c-26.06,0.11-43.47-14.07-69.77-57.31c-11.19-18.34-16.72-25.71-21.79-29.18
		c-3.46-2.3-5.42-2.65-15.34-2.65c-19.37,0-39.44,5.19-63.08,16.26c-5.42,2.54-10.15,4.15-10.61,3.69
		c-1.27-1.5-16.03-29.87-16.03-31.02c0-0.58,5.54-3.57,12.34-6.8c24.22-11.18,28.14-20.18,14.53-32.98
		c-8.42-7.84-19.6-12.8-38.4-16.72c-14.53-3.11-45.78-2.88-57.77,0.46c-11.65,3.11-18.34,6.46-24.68,11.99
		c-6.92,6.11-10.61,12.8-12.8,22.95c-2.08,10.26-0.92,23.06,3.69,38.75c1.73,5.54,3.23,10.95,3.57,11.88c0.35,1.39-3.34,3-15.8,7.15
		l-16.26,5.42l-2.19-5.19c-3.46-7.96-7.73-23.06-9.92-34.48c-2.77-15.22-1.85-37.59,2.08-48.09c8.99-24.33,26.75-39.09,55.7-46.59
		c9.8-2.54,14.88-3.11,33.67-3.57c14.07-0.46,26.18-0.11,33.21,0.69c46.82,6,78.76,29.18,86.72,63.31l1.84,7.84l8.19-1.62
		c5.3-1.04,12.57-1.38,20.41-1.04c17.53,0.69,26.41,5.19,36.79,18.22l4.27,5.42l7.96-6.23c10.38-8.19,25.14-15.68,38.05-19.6
		c8.65-2.54,12.45-3.11,24.1-3.11c16.14,0,24.79,2.19,34.71,8.99l6,4.15l4.84-2.42c9.46-4.84,17.99-5.77,53.62-5.77h33.44l3.34,5.65
		l3.34,5.65l7.03-2.88c3.81-1.61,10.84-3.92,15.68-5.3c8.3-2.3,11.53-2.42,84.76-2.88c50.05-0.23,80.61,0,89.37,0.92
		c15.57,1.5,32.4,4.73,44.74,8.65c4.96,1.62,9.34,2.42,9.92,1.85c2.54-1.96,18.45-7.15,27.56-8.88c7.38-1.5,20.41-1.96,59.73-2.42
		l50.28-0.58l3.11,5.3c3.34,5.77,4.73,6.23,10.15,3.46c1.96-1.04,8.53-3.11,14.65-4.84c10.95-2.88,11.65-3,59.27-3.46l48.09-0.46
		v112.55v112.55h-19.03h-19.03v-93.52v-93.52l-33.1,0.58c-21.68,0.34-34.83,0.92-37.94,1.84l-4.84,1.5l2.65,6.8
		c4.84,12.23,16.49,55.82,15.34,57.08c-0.35,0.23-10.38-3-22.49-7.15l-21.91-7.61l-0.69-9c-0.69-9.34-5.65-35.52-7.73-40.82l-1.15-3
		h-42.21h-42.21l6.34,6.92c12.8,13.84,19.49,29.41,19.72,46.13c0.12,13.61-2.08,20.87-9.11,28.6
		c-9.69,10.84-24.68,16.03-49.01,17.18c-22.14,1.04-51.66-4.38-70.8-12.8l-6.46-2.88v-23.99v-23.98l16.14-16.14
		c11.07-11.07,15.68-16.49,14.88-17.3c-0.69-0.69-15.91-1.27-41.98-1.5l-40.94-0.34v93.41v93.52h-19.03h-19.03V46089.69z
		 M1644.31,46056.24c2.42-0.57,6.11-2.77,8.3-4.73c3.57-3,4.04-4.15,4.04-8.88c0-8.07-4.38-15.91-14.53-25.37
		c-4.73-4.5-8.99-8.19-9.57-8.19c-1.27,0-41.63,41.17-41.63,42.55c0,0.57,4.27,1.84,9.57,2.88c5.19,1.04,10.49,2.07,11.76,2.3
		C1617.32,46057.74,1640.16,46057.4,1644.31,46056.24z M1233.09,46043.45c4.96-4.61,9.8-13.49,17.3-31.83
		c4.04-9.92,7.61-18.68,7.96-19.49c1.84-4.04-21.22-3.11-36.79,1.38c-9.57,2.77-23.99,9.34-31.02,14.18l-3.23,2.07l6,9.8
		c7.26,11.76,20.76,25.83,26.41,27.33C1224.44,46048.17,1229.4,46046.9,1233.09,46043.45z"/>
	<path d="M1948.4,46070.77v-112.43h19.6h19.6v112.43v112.43H1968h-19.6V46070.77z"/>
	<path d="M2852.48,46089.8v-93.41h-23.06c-16.95,0-24.1,0.46-26.87,1.61c-5.54,2.31-11.53,9.92-15.8,20.07
		c-10.72,25.25-13.15,30.56-17.87,38.63c-13.03,22.14-30.79,31.82-52.12,28.48c-22.49-3.57-38.98-19.83-65.62-64.35
		c-6.57-11.07-14.3-20.29-19.03-22.71c-2.42-1.27-7.5-1.73-20.64-1.73c-9.46,0-17.3,0.12-17.3,0.35c0,0.11,1.15,3.46,2.42,7.15
		c3.69,10.03,3.69,25.95,0.12,37.48c-3.69,11.76-11.42,25.95-20.3,37.25c-7.96,10.26-22.72,24.79-30.33,29.98l-4.84,3.34
		l-14.99-11.76l-14.88-11.76l-7.15-17.99c-3.92-10.04-11.3-30.68-16.49-46.01l-9.46-28.02h-21.68c-24.68,0-38.52,2.07-37.13,5.54
		c6.69,16.95,18.57,62.5,16.38,62.5c-0.69,0-42.67-14.99-43.01-15.34c-0.23-0.11-0.92-4.96-1.61-10.61
		c-1.38-11.07-5.07-30.67-7.15-37.71l-1.27-4.38h-26.52c-35.75,0-49.36,2.88-77.95,16.26c-5.42,2.54-10.15,4.15-10.61,3.69
		c-1.38-1.5-16.03-29.87-16.03-31.02c0-0.69,5.54-3.69,12.34-6.8c24.22-11.18,28.14-20.18,14.53-32.98
		c-5.88-5.54-11.3-8.65-20.76-11.88c-25.6-9-61.35-9.92-82.68-2.19c-10.15,3.69-15.11,6.8-20.76,13.03
		c-11.76,13.03-13.61,31.82-5.77,58.46c1.73,5.65,3.23,10.95,3.57,11.88c0.35,1.39-3.34,3-15.8,7.15l-16.26,5.42l-2.19-5.19
		c-9.92-23.18-14.41-57.89-9.8-76c6.92-27.1,26.41-45.09,57.66-53.16c9.8-2.54,14.88-3.11,33.67-3.57
		c14.07-0.46,26.18-0.11,33.21,0.69c46.82,6,78.76,29.18,86.72,63.31l1.85,7.84l7.61-1.5c4.96-0.92,18.22-1.38,37.94-1.5h30.21
		l3.46,5.65l3.46,5.65l6.92-2.88c13.95-5.65,23.76-7.38,43.59-8.07l18.8-0.69l-0.81-4.84c-1.15-7.73,1.5-20.99,5.88-30.45
		c7.5-15.8,23.64-27.79,42.9-31.83c10.26-2.19,34.36-2.19,44.63,0c24.79,5.3,39.09,20.18,39.21,40.94c0.12,9-2.19,17.18-6.34,23.18
		l-2.19,3.11l21.1,0.46c27.21,0.81,29.29,1.5,41.86,14.18l9.34,9.34l4.5-3.92c2.42-2.19,8.65-6.46,13.72-9.57
		c29.52-18.22,64.35-20.75,85.8-6.23l5.88,3.92l6.23-2.77c10.49-4.61,17.3-5.19,62.62-5.19h43.01v112.43v112.43h-19.03h-19.03
		V46089.8z M2553.12,46047.82c10.49-18.8,10.03-36.21-0.92-45.32c-5.88-4.73-11.19-6.11-24.1-6.11h-10.96l2.19,7.84
		c1.27,4.27,6.23,19.84,11.07,34.71l8.88,26.98l4.96-5.54C2547.01,46057.4,2551.04,46051.75,2553.12,46047.82z M2729.09,46045.17
		c1.61-1.15,3.81-3.11,4.96-4.38c3-3.46,10.96-19.26,15.22-30.68c2.19-5.54,4.96-12.11,6.23-14.64c2.88-5.65,2.31-6-9.46-6
		c-10.84,0-26.87,3.46-37.82,7.96c-9.8,4.04-21.79,11.18-21.79,13.03c0,2.07,12.11,19.72,17.87,26.06
		C2713.29,46046.44,2722.63,46049.67,2729.09,46045.17z M2550.47,45956.73c15.34-3.57,22.83-13.26,17.18-22.37
		c-2.88-4.73-8.42-7.15-18.34-7.96c-20.76-1.73-36.79,8.88-37.94,25.14l-0.46,6.8h16.49
		C2537.09,45958.34,2546.66,45957.65,2550.47,45956.73z"/>
	<path d="M2935.51,46070.77v-112.43h19.03h19.03v112.43v112.43h-19.03h-19.03V46070.77z"/>
	<path d="M3535.15,46089.8v-93.41l-25.02,0.23l-25.14,0.35l-0.92,9.22c-3.57,37.82-21.1,65.85-46.13,73.46
		c-6.34,1.85-10.15,2.31-19.6,1.85c-10.72-0.35-12.57-0.81-20.87-4.73c-13.03-6.11-25.14-18.45-31.6-31.94
		c-6.23-13.26-7.73-20.07-7.61-35.75c0-10.95,0.46-14.41,2.54-19.83c3.57-9,11.07-16.95,20.76-22.03
		c11.76-6.23,19.83-7.84,43.13-8.53l20.41-0.69l-2.42-4.61c-5.65-11.19-21.1-22.14-35.29-25.14c-10.03-2.07-27.68-0.69-40.01,3
		c-5.65,1.73-11.42,3.46-12.68,3.69c-1.96,0.46-3.34-1.5-8.53-11.99l-6.11-12.34l4.38-3.8c5.88-4.96,20.99-12.34,30.44-14.99
		c5.54-1.5,11.88-1.96,24.79-2.07c15.22,0,18.34,0.35,25.83,2.77c15.11,4.96,30.21,16.84,40.36,31.59
		c4.38,6.46,11.88,22.14,14.07,29.41l1.38,4.84h124.89h124.77l0.81,3.57c0.58,2.65,1.27,3.34,2.65,2.65
		c1.15-0.46,5.3-1.84,9.46-3.11c6.69-2.07,11.3-2.42,41.74-2.88l34.13-0.46l3.11,5.3c3.34,5.77,4.73,6.23,10.03,3.46
		c1.96-1.04,8.53-3.23,14.65-4.84l11.07-3.11l98.36-0.35l98.25-0.34v112.55v112.43h-19.6h-19.6v-93.41v-93.41h-30.56h-30.56v93.41
		v93.41h-19.03h-19.03v-93.41v-93.41h-29.06c-26.64,0-40.82,1.04-44.63,3.34c-1.04,0.69-0.35,4.15,3.23,14.64
		c4.96,14.88,13.49,48.55,12.57,49.47c-0.35,0.34-10.38-2.88-22.49-7.04l-21.91-7.73l-0.69-9.34c-0.81-9.34-5.54-34.82-7.73-40.36
		l-1.15-3h-25.95c-19.37,0-28.14,0.46-33.9,1.73l-7.84,1.84l-0.69,15.22c-1.73,41.4-19.26,68.04-51.09,77.61
		c-5.07,1.61-10.72,2.07-22.37,2.07c-18.22,0.12-25.25-1.5-40.94-9.11c-15.11-7.27-26.29-16.26-41.17-32.75l-6.69-7.38v68.73v68.84
		h-19.6h-19.6V46089.8z M3676.42,46053.48c7.03-3.34,13.15-10.03,16.61-17.99c3.23-7.27,5.88-21.45,5.88-31.02v-8.07h-61.12
		c-33.56,0-61.12,0.35-61.12,0.92c0,1.73,14.99,20.88,22.6,28.95c13.84,14.76,30.9,25.6,46.01,29.41
		C3655.54,46058.32,3668.57,46057.4,3676.42,46053.48z M3426.18,46042.64c10.84-4.96,20.87-22.26,23.06-39.9l0.92-6.57l-20.76,0.46
		c-19.37,0.35-20.99,0.46-26.29,3.23c-3.92,1.96-6.46,4.27-7.73,6.92c-5.88,11.65,2.08,30.56,15.22,36.21
		C3416.03,46045.29,3420.64,46045.17,3426.18,46042.64z"/>
	<path d="M1746.02,46137.2c-6.92-7.61-12.8-14.18-12.92-14.76c-0.23-0.46,5.88-7.15,13.49-14.76l13.72-13.72l13.03,13.61
		l13.03,13.72l13.15-13.61l13.03-13.49l4.04,3.92c2.19,2.07,8.19,8.3,13.26,13.84l9.23,10.15l-13.72,14.53l-13.61,14.53
		l-12.92-13.72l-12.92-13.61l-13.61,13.49l-13.61,13.61L1746.02,46137.2z"/>
	<path d="M2410.82,46147.34c-1.61-1.73-7.5-8.19-13.15-14.3l-10.38-11.07l13.84-13.84c7.5-7.5,14.07-13.72,14.41-13.72
		c0.46,0,6.69,6.23,13.84,13.95l13.03,13.84l-14.41,14.19l-14.3,14.3L2410.82,46147.34z"/>
	<path d="M3797.5,46137.08c-6.92-7.61-12.8-14.18-12.92-14.64c-0.23-0.58,5.88-7.15,13.49-14.76l13.84-13.84l12.92,13.61l12.8,13.72
		l13.49-13.49l13.49-13.38l8.07,8.42c4.38,4.61,10.26,10.84,13.03,13.84l4.96,5.54l-13.72,14.53l-13.61,14.53l-12.92-13.61
		l-13.03-13.72l-13.61,13.49l-13.61,13.49L3797.5,46137.08z"/>
	<path d="M3281.11,46078.5l-17.18-17.18l3.57-5.77c10.03-16.38,18.57-38.29,20.3-52.7l0.81-6.46h-33.21
		c-37.82,0-39.44,0.35-47.05,9.69c-2.19,2.65-13.72,21.33-25.6,41.63c-11.76,20.3-22.14,37.59-22.95,38.4
		c-1.15,1.27-4.04-1.84-15.11-15.57c-7.5-9.34-13.84-17.3-14.07-17.76c-0.12-0.35,7.73-12.8,17.53-27.45
		c19.14-28.6,21.45-33.44,21.45-45.67c0-19.49-10.84-38.28-27.79-48.2c-6.57-3.92-21.33-7.73-29.52-7.73
		c-7.61,0-20.3,2.54-31.37,6.34l-8.19,2.77l-1.61-2.54c-0.92-1.38-3.92-7.15-6.69-12.68l-4.96-10.26l4.04-3.34
		c5.77-4.96,21.1-12.11,31.71-14.99c7.03-1.96,12.57-2.54,23.06-2.54c16.49-0.11,24.56,1.85,38.05,8.77
		c11.65,6,25.72,19.72,32.87,31.71c5.07,8.65,12.68,28.71,12.68,33.56c0,2.19,0.46,2.54,2.65,2.07c18.1-4.15,18.45-4.27,63.19-4.27
		h44.51l2.54,8.42c6.23,21.1,7.96,37.82,6,56.5c-2.19,19.95-8.88,42.55-19.03,64.58l-3.57,7.84L3281.11,46078.5z"/>
	<path d="M1335.26,45924.32c-6.8-7.38-12.57-13.72-12.8-14.18c-0.12-0.46,6-7.03,13.72-14.64l13.84-13.84l12.92,13.61l12.92,13.61
		l13.26-13.26c7.26-7.38,13.61-13.26,14.18-13.03c1.5,0.46,25.02,26.64,25.02,27.91c0,1.5-25.6,27.1-27.1,27.1
		c-0.69,0-6.57-5.88-13.26-13.14l-12.11-13.14l-13.26,13.14c-7.26,7.27-13.61,13.14-14.07,13.14S1342.18,45931.59,1335.26,45924.32z
		"/>
	<path d="M3243.75,45924.21c-6.8-7.27-12.57-13.61-12.8-14.07c-0.12-0.46,6-7.03,13.72-14.64l13.84-13.84l12.92,13.61l12.92,13.61
		l13.26-13.26c7.26-7.38,13.49-13.38,13.95-13.38c0.92,0,24.22,25.6,25.02,27.45c0.58,1.62-24.68,27.91-26.87,27.91
		c-0.58,0-6.57-6-13.26-13.14l-12.11-13.26l-13.26,13.26c-7.26,7.27-13.61,13.14-14.07,13.14
		C3256.55,45937.58,3250.67,45931.59,3243.75,45924.21z"/>
	<path d="M943.76,45855.02c-6.92-7.38-12.45-13.95-12.45-14.64c0-0.81,6.11-7.5,13.61-14.99l13.61-13.49l12.8,13.72l12.8,13.72
		l13.49-13.61l13.61-13.72l8.19,8.88c4.5,4.84,10.49,11.3,13.26,14.41l5.07,5.42l-14.07,14.18l-13.95,14.07l-13.03-13.61
		l-12.92-13.61l-13.26,13.26c-7.26,7.38-13.49,13.38-13.84,13.26C956.33,45868.28,950.56,45862.28,943.76,45855.02z"/>
	<path d="M2167.38,45857.55c-5.54-5.77-11.3-12.11-12.92-14.07l-3-3.46l14.07-14.07l14.18-14.07l12.8,13.72l12.8,13.72l13.49-13.72
		l13.49-13.61l8.3,8.88c4.5,4.84,10.49,11.3,13.15,14.3l5.07,5.42l-13.95,14.18l-13.95,14.18l-12.92-13.61l-13.03-13.61
		l-13.26,13.26c-7.27,7.38-13.49,13.38-13.84,13.26C2177.53,45868.16,2172.8,45863.43,2167.38,45857.55z"/>
	<path d="M1535.45,45703.95c-6.69-1.96-13.95-9.11-15.8-15.22c-2.08-6.8-1.61-17.41,0.81-22.72c7.26-16.14,35.63-19.6,49.24-5.88
		c9.92,9.8,10.03,28.02,0.23,37.82C1562.66,45705.22,1547.79,45707.76,1535.45,45703.95z"/>
	<path d="M3270.39,45704.18c-10.96-3.57-17.76-13.03-17.76-24.79c0-18.8,9.34-27.33,29.98-27.21c11.3,0.11,16.84,2.3,22.72,9.11
		c4.96,5.54,6.46,11.07,5.88,20.53c-0.81,10.15-4.73,16.38-12.92,20.41C3291.49,45705.68,3277.65,45706.61,3270.39,45704.18z"/>
	<path d="M2296.65,45552.43v-138.38h23.06h23.06v138.38v138.38h-23.06h-23.06V45552.43z"/>
	<path d="M878.26,45544.93v-130.88h24.22h24.22v62.96c0,53.62-0.35,66.88-2.42,90.64c-1.27,15.22-2.19,28.14-1.96,28.71
		c0.23,0.57,31.48-40.25,69.54-90.64l69.19-91.56h22.83l22.72-0.11v130.88v130.89h-24.79H1057v-40.59
		c0-49.36,1.85-110.12,3.92-131.23c0.81-8.53,1.38-15.68,1.38-15.8c-0.12,0-31.48,42.09-69.88,93.75l-69.77,93.75l-22.14,0.12
		h-22.26V45544.93z"/>
	<path d="M2508.84,45653.91V45632h21.33h21.33v-87.07v-87.06h-21.33h-21.33v-21.91v-21.91h66.88h66.88v21.91v21.91h-21.33h-21.33
		v87.06v87.07h21.33h21.33v21.91v21.91h-66.88h-66.88V45653.91z"/>
	<path d="M1394.88,45636.03v-24.79h-19.6h-19.6v-21.91v-21.91h19.6h19.6v-76.69v-76.68h23.06h23.06v76.68v76.69h21.33h21.33v21.91
		v21.91h-21.33h-21.33v24.79v24.79h-23.06h-23.06V45636.03z"/>
	<path d="M3129.24,45636.03v-24.79h-19.6h-19.6v-21.91v-21.91h19.6h19.6v-76.69v-76.68h23.06h23.06v76.68v76.69h21.33h21.33v21.91
		v21.91h-21.33h-21.33v24.79v24.79h-23.06h-23.06V45636.03z"/>
	<path d="M3386.4,45636.03v-24.79h-19.6h-19.6v-21.91v-21.91h19.6h19.6v-76.69v-76.68h23.06h23.06v76.68v76.69h21.33h21.33v21.91
		v21.91h-21.33h-21.33v24.79v24.79h-23.06h-23.06V45636.03z"/>
	<path d="M3763.48,45636.03v-24.79h-19.03h-19.03v-21.91v-21.91h19.03h19.03v-76.69v-76.68h23.64h23.64v76.68v76.69h21.33h21.33
		v21.91v21.91h-21.33h-21.33v24.79v24.79h-23.64h-23.64V45636.03z"/>
	<path d="M1233.67,45614.7c-4.5-0.57-11.53-1.96-15.57-2.88c-8.99-2.42-26.87-10.72-34.71-16.38c-8.53-6-20.3-16.61-20.3-18.1
		c0-0.7,6.34-7.61,14.07-15.34l14.07-14.07l8.19,7.73c9.23,8.76,16.72,13.14,26.52,15.8c8.65,2.19,23.87,2.19,31.37,0
		c13.49-4.04,22.03-15.34,23.18-30.56l0.58-8.07h-26.41c-29.06,0-40.82-1.38-55.81-6.34c-21.33-7.15-34.48-20.99-38.75-40.82
		c-6.11-29.17,5.88-55.12,31.25-67.69c25.83-12.69,56.97-8.88,81.87,9.91l7.5,5.65v-9.69v-9.8h22.03h21.91l-0.35,74.15
		c-0.46,65.96-0.69,74.72-2.42,80.84c-8.42,28.83-31.25,44.28-68.27,46.12C1247.27,45615.39,1238.28,45615.16,1233.67,45614.7z
		 M1280.71,45485.08v-14.3l-6.57-6c-11.99-10.61-26.41-16.14-42.44-16.14c-15.34,0-25.48,6.46-28.02,18.11
		c-2.42,10.49,2.19,20.64,11.76,26.29c8.19,4.84,17.3,6.11,42.55,6.23l22.72,0.11V45485.08z"/>
	<path d="M1705.43,45614.58c-43.47-4.84-78.18-37.13-86.26-80.03c-2.65-13.95-1.85-38.98,1.61-51.09
		c11.42-39.44,42.44-66.42,82.68-71.84c13.38-1.73,33.1-0.69,44.86,2.42c34.02,9.11,60.66,35.86,70,70.34
		c2.31,8.42,2.65,12.45,2.54,28.83c-0.12,15.8-0.46,20.64-2.65,28.25C1804.71,45591.4,1759.51,45620.7,1705.43,45614.58z
		 M1736.56,45570.88c17.41-5.42,31.37-21.21,35.98-40.59c2.19-9.34,2.19-24.91,0-34.25c-10.03-42.43-60.43-58.12-90.41-28.02
		c-12.68,12.57-18.1,28.02-17.07,48.66c1.38,27.33,14.76,46.24,38.29,54.43C1711.54,45573.99,1726.99,45573.88,1736.56,45570.88z"/>
	<path d="M1960.16,45614.58c-15.8-2.42-30.33-9.69-43.13-21.68l-7.84-7.27v12.8v12.8h-23.06h-23.06v-98.6v-98.59h22.95h23.06
		l0.35,63.19c0.46,70.11,0.23,67.69,8.42,78.99c7.61,10.38,19.49,16.49,34.36,17.64c17.99,1.61,28.48-3.57,35.4-17.41l4.04-7.96
		l0.35-67.23l0.35-67.23h23.52h23.64v61.46c0,78.64-0.92,89.02-9.8,107.82c-7.03,14.76-19.83,25.25-36.44,29.52
		C1984.49,45615.04,1968.92,45615.85,1960.16,45614.58z"/>
	<path d="M2155.97,45614.58c-23.18-2.77-48.2-14.99-64.58-31.6l-6.34-6.34l14.41-14.41l14.41-14.41l8.07,7.84
		c13.15,12.45,25.6,17.53,43.47,17.53c13.15,0,21.22-2.88,28.71-10.38c6.23-6.23,9.11-13.84,9.11-23.87v-6.11h-26.29
		c-29.64,0-42.09-1.5-57.31-7.03c-25.25-9.23-37.94-27.56-37.94-54.66c0-18.8,4.5-30.1,16.84-42.21
		c15.68-15.45,43.47-22.14,66.88-16.14c12.34,3.23,26.06,10.49,34.71,18.34l3.11,3v-10.03v-10.03h22.03h21.91l-0.35,75.3
		c-0.35,74.27-0.46,75.3-3,82.8c-3.11,9.34-10.15,20.3-16.72,25.95C2212.13,45611.01,2182.72,45617.81,2155.97,45614.58z
		 M2203.25,45485.08v-14.3l-6.11-5.65c-12.11-10.96-26.41-16.49-42.9-16.49c-17.07,0-26.98,7.84-28.02,21.91
		c-0.69,8.88,2.65,16.03,9.34,20.53c10.38,7.04,15.91,8.07,44.97,8.19l22.72,0.11V45485.08z"/>
	<path d="M2795.4,45614.81c-18.34-3-35.63-12.22-47.51-25.25l-4.96-5.3v13.49v13.49h-22.49h-22.49v-98.6v-98.59h23.06h22.95
		l0.35,64.35c0.35,63.65,0.35,64.23,2.88,69.77c3.57,7.5,12.92,17.07,20.3,20.76c18.57,9.11,42.78,6,51.43-6.57
		c7.5-10.84,7.5-10.73,7.96-82.8l0.35-65.5h22.95h23.06v67c0,42.09-0.46,70-1.27,75.18c-4.73,31.6-20.07,50.97-44.97,56.62
		C2817.42,45615.04,2802.66,45615.96,2795.4,45614.81z"/>
	<path d="M2977.94,45614.7c-25.25-3.11-46.7-16.61-55.93-35.4c-3.69-7.61-4.27-9.91-4.73-19.03c-0.92-18.79,4.04-31.71,16.49-43.36
		c11.19-10.5,25.02-16.61,59.16-26.06c21.1-5.88,29.06-11.99,29.06-22.37c0-8.19-5.42-15.57-14.07-19.14
		c-5.54-2.42-21.33-2.42-30.33-0.11c-10.15,2.65-22.14,8.88-29.64,15.45c-3.57,3.23-6.8,5.88-7.15,5.88
		c-0.81,0-28.83-24.33-29.29-25.37c-0.58-1.61,7.96-10.38,15.45-15.68c9.46-6.8,21.68-12.23,34.48-15.57
		c13.72-3.57,43.01-3.92,54.78-0.69c12.34,3.46,23.99,9.8,32.52,17.99c16.95,15.91,22.14,38.05,14.53,61.23
		c-2.08,6.34-3.69,8.77-10.61,15.68c-9.46,9.46-20.53,15.34-39.32,21.1c-6.34,1.85-16.14,4.84-21.91,6.46
		c-21.22,6.34-28.25,12.34-28.25,23.98c0,10.49,8.99,17.64,23.76,18.91c14.18,1.16,30.33-4.96,45.32-17.07
		c4.04-3.23,7.61-5.65,8.07-5.42c0.46,0.23,6.46,6.46,13.26,14.07l12.45,13.61l-5.07,5.19c-6.34,6.57-19.37,14.64-30.1,18.8
		C3015.42,45613.77,2993.63,45616.66,2977.94,45614.7z"/>
	<path d="M3954.68,45614.12c-32.29-6.11-56.97-25.48-70.8-55.35c-11.3-24.45-12.68-60.54-3.34-85.57
		c11.3-29.98,38.28-52.7,71.03-59.85c11.99-2.54,31.14-3.34,42.67-1.73c11.76,1.73,30.91,7.96,41.28,13.38
		c9.69,5.19,21.45,14.07,21.33,16.03c-0.12,1.27-17.87,27.1-21.33,31.13c-0.46,0.46-3.57-1.27-6.92-3.92
		c-14.3-11.3-32.63-17.07-50.05-15.68c-30.21,2.3-51.09,18.91-57.54,46.01l-0.69,3.11h71.96h72.07l0.81,6.57
		c1.15,9.23-0.35,28.6-3,39.21c-3,11.76-11.07,28.02-18.1,36.32c-11.53,13.61-29.18,24.79-45.9,29.18
		C3988.35,45615.62,3965.63,45616.2,3954.68,45614.12z M3983.85,45573.18c17.87-3.34,33.1-17.99,35.29-34.02l0.69-5.19h-49.36
		h-49.24l0.69,3.23c0.46,1.73,2.31,6.23,4.15,10.15C3935.42,45566.5,3960.21,45577.68,3983.85,45573.18z"/>
	<path d="M1525.19,45512.64v-98.59h23.06h23.06v98.59v98.6h-23.06h-23.06V45512.64z"/>
	<path d="M3259.55,45512.64v-98.59h23.06h23.06v98.59v98.6h-23.06h-23.06V45512.64z"/>
	<path d="M3510.01,45541.24c0.46-67.81,0.58-70.46,3-79.11c7.38-26.64,25.37-44.74,49.47-49.82c25.25-5.42,52.35,2.3,70.8,20.18
		c4.5,4.5,8.53,8.07,8.65,8.07c0.23,0,0.46-6,0.46-13.26v-13.26h22.49h22.49v98.59v98.6h-23.06h-22.95l-0.35-64.23l-0.35-64.35
		l-3.57-7.5c-4.27-9-11.42-16.26-20.06-20.53c-8.88-4.38-25.25-5.07-34.83-1.5c-11.07,4.27-19.49,14.42-23.52,28.37
		c-1.73,6.11-2.08,14.41-2.54,68.38l-0.46,61.35h-22.95h-23.06L3510.01,45541.24z"/>
	<path d="M1699.2,45285.01c-2.54-2.65-3.34-4.5-3.34-7.96c0-8.88,7.73-13.61,17.41-10.73c8.19,2.42,10.72,12.57,4.61,18.68
		c-2.88,2.88-4.27,3.34-9.34,3.34C1703.47,45288.35,1702.08,45287.89,1699.2,45285.01z"/>
	<path d="M2660.71,45286.04c-3.92-3.11-4.96-8.76-2.77-14.18c1.38-3.23,2.77-4.38,6.34-5.54c10.15-3,17.53,1.73,17.53,11.3
		c0,7.5-3.57,10.73-11.88,10.73C2665.32,45288.35,2662.9,45287.66,2660.71,45286.04z"/>
	<path d="M1329.15,45262.64v-19.95l-8.3,4.04c-7.38,3.69-9.23,4.15-16.95,4.04c-10.84-0.11-18.1-3-25.72-10.49
		c-18.34-17.99-15.91-54.55,4.61-68.61c12.92-8.88,30.21-8.77,42.67,0.23l4.84,3.46v-4.61v-4.61h9.8h9.8v58.23v58.23h-10.38h-10.38
		V45262.64z M1313.23,45233c10.15-2.88,16.38-12.22,16.49-24.79c0-10.38-3.34-17.76-10.15-22.26c-3.81-2.54-6-3.11-11.88-3.11
		c-6.23,0-7.84,0.46-11.65,3.57c-12.68,10.15-13.26,33.21-0.92,42.67C1301.36,45233.8,1306.32,45234.84,1313.23,45233z"/>
	<path d="M2017.59,45224.35v-58.23h9.8h9.8v58.23v58.23h-9.8h-9.8V45224.35z"/>
	<path d="M2383.26,45280.97c-9.92-3.35-15.8-11.77-16.95-24.79l-0.81-8.19h-6.11h-6.23v-9.23v-9.23h6.34h6.34v-31.71v-31.71h10.38
		h10.38v31.71v31.71h9.23h9.23v9.23v9.23h-9.23h-9.23v4.73c0,9.23,5.19,13.03,12.92,9.57c2.42-1.04,4.61-1.73,4.84-1.5
		c1.27,1.27,6.11,14.41,5.65,15.22c-0.23,0.46-2.65,1.96-5.19,3.23C2398.82,45282.36,2389.71,45283.05,2383.26,45280.97z"/>
	<path d="M2978.17,45224.35v-58.23h9.8h9.8v58.23v58.23h-9.8h-9.8V45224.35z"/>
	<path d="M3449.82,45224.35v-58.23h10.38h10.38v58.23v58.23h-10.38h-10.38V45224.35z"/>
	<path d="M879.41,45220.89v-54.77h10.96h10.96v22.48v22.49h22.49h22.49v9.8v9.8h-22.49h-22.49v12.69v12.68h25.95h25.95v9.8v9.8
		h-36.9h-36.9V45220.89z"/>
	<path d="M1178.08,45220.89v-54.77h36.32h36.32v9.8v9.8h-25.37h-25.37v13.84v13.84h21.33h21.33v9.23v9.23h-21.33h-21.33v12.68v12.68
		h25.37h25.37v9.23v9.23h-36.32h-36.32V45220.89z"/>
	<path d="M2107.53,45220.89v-54.77h10.38h10.38v20.06v20.07l17.64,0.46c16.61,0.35,17.76,0.46,22.83,3.46
		c11.88,6.92,17.64,17.3,17.64,31.48c0,11.3-2.65,17.88-10.15,25.25c-8.3,8.07-11.76,8.77-42.44,8.77h-26.29V45220.89z
		 M2160.12,45252.26c7.15-6.57,6.57-17.53-1.38-23.76c-2.77-2.19-4.61-2.42-16.72-2.42h-13.72v14.99v14.99h13.84h13.84
		L2160.12,45252.26z"/>
	<path d="M3068.12,45221.01v-54.89h23.41c27.91,0,35.63,1.04,46.59,6.34c18.34,9,28.25,29.29,26.52,54.2
		c-1.15,15.8-6.34,27.1-17.41,37.13c-11.3,10.38-14.76,11.18-49.36,11.65l-29.75,0.34V45221.01z M3125.32,45253.29
		c11.53-5.3,17.76-16.61,17.76-31.82c0-15.45-5.77-26.41-16.49-31.71c-5.54-2.65-8.19-3.11-21.45-3.69l-15.11-0.69v35.29v35.4h14.76
		C3117.71,45256.06,3120.13,45255.71,3125.32,45253.29z"/>
	<path d="M1645.12,45259.52v-10.38h-8.07h-8.07v-9.23v-9.23h8.07h8.07v-32.29v-32.29h9.8h9.8v32.29v32.29h9.23h9.23v9.23v9.23h-9.23
		h-9.23v10.38v10.38h-9.8h-9.8V45259.52z"/>
	<path d="M4025.25,45259.52v-10.38h-8.07h-8.07v-9.23v-9.23h8.07h8.07v-32.29v-32.29h9.8h9.8v32.29v32.29h8.65h8.65v9.23v9.23h-8.65
		h-8.65v10.38v10.38h-9.8h-9.8V45259.52z"/>
	<path d="M995.88,45250.3c-13.38-2.88-25.25-12.68-30.1-25.14c-2.08-5.19-2.65-8.88-2.65-17.53c0-9.57,0.46-11.88,3.23-17.99
		c3.92-8.88,11.76-16.61,20.87-20.87c6.11-2.88,8.19-3.23,18.45-3.23s12.34,0.46,18.68,3.34c7.84,3.57,15.91,11.3,19.72,18.8
		c1.27,2.42,3,7.84,3.69,11.99c3.92,21.57-7.27,42.09-26.64,48.89C1014.91,45250.76,1002.46,45251.68,995.88,45250.3z
		 M1017.79,45229.08c14.65-9.69,13.26-35.4-2.31-43.36c-16.14-8.19-33.67,5.42-32.06,24.91
		C984.93,45228.85,1003.26,45238.65,1017.79,45229.08z"/>
	<path d="M1102.55,45250.41c-5.19-1.27-8.76-3.46-13.49-7.95l-4.38-4.15v5.42v5.42h-10.38h-10.38v-41.52v-41.51h10.38h10.38v23.98
		c0,22.6,0.12,24.21,2.65,29.06c3.46,6.92,9.8,10.61,16.95,10.04c2.88-0.35,6-0.93,7.03-1.27c1.5-0.69,2.19,1.15,4.15,9.92
		c1.38,5.88,2.08,11.07,1.61,11.53C1115.81,45250.76,1106.36,45251.45,1102.55,45250.41z"/>
	<path d="M1495.32,45250.18c-7.84-1.5-14.41-5.19-20.07-11.3c-6.46-6.92-9.46-12.57-11.19-21.68c-4.15-20.75,5.54-40.59,23.76-49.01
		c4.61-2.19,7.61-2.65,16.61-2.65c9.8,0,11.76,0.35,18.45,3.57c8.76,4.15,14.99,9.11,14.99,11.76c-0.12,1.15-2.31,4.5-5.07,7.61
		l-5.07,5.77l-3.69-3.23c-8.76-7.27-18.57-9.57-26.87-6.11c-7.84,3.34-14.65,13.95-14.65,23.18c0,12.8,11.19,24.79,23.06,24.91
		c4.96,0,14.65-4.5,18.34-8.54c1.61-1.61,3.23-3,3.69-3c1.04,0,10.26,12.11,10.26,13.61c0,2.08-6.92,8.3-12.57,11.19
		c-5.42,2.77-16.49,5.3-21.91,5.07C1501.78,45251.22,1498.09,45250.76,1495.32,45250.18z"/>
	<path d="M1574.77,45249.84c-3.46-0.81-8.65-2.65-11.53-4.04c-6-3.23-13.84-9.46-13.84-11.07c0-1.5,10.61-12.11,11.99-12.11
		c0.58,0,3,1.73,5.42,3.92c11.76,10.72,31.02,7.15,31.02-5.77v-3.58l-14.07-0.69c-26.18-1.04-35.86-8.19-35.86-26.18
		c0-8.3,1.73-12.68,6.92-17.41c6.11-5.77,10.61-7.38,20.53-7.38c8.3,0,9.92,0.35,15.91,3.8l6.57,3.69v-3.46v-3.46h9.92h9.8
		l-0.35,33.21l-0.35,33.09l-3.23,5.42c-3.81,6.57-10.26,10.61-19.72,12.34C1585.61,45251.68,1582.96,45251.68,1574.77,45249.84z
		 M1597.84,45195.64c0-5.88-0.23-6.34-4.38-9.23c-2.42-1.61-7.27-3.69-10.84-4.38c-5.65-1.15-6.8-1.04-10.26,0.93
		c-5.07,3-6.8,7.61-4.38,11.76c2.77,5.19,8.3,7.15,19.83,7.15h10.03V45195.64z"/>
	<path d="M1769.66,45250.3c-11.99-2.54-23.29-11.07-28.6-21.56c-1.27-2.42-3-7.73-3.69-11.65c-4.04-20.53,5.42-39.79,23.64-48.32
		c6.11-2.88,8.3-3.23,18.45-3.23c10.72,0,12.11,0.23,19.26,3.8c9.46,4.61,17.07,12.8,20.64,21.91c3.23,8.42,3.57,23.41,0.69,31.94
		c-3.92,11.3-13.84,21.45-24.91,25.37C1789.03,45250.64,1776,45251.57,1769.66,45250.3z M1791.34,45229.2
		c8.65-5.65,12.8-19.14,9.34-29.75c-6.34-18.91-29.87-21.79-40.25-5.07c-1.61,2.65-2.77,6.8-3.11,11.42
		c-1.04,11.88,4.61,21.68,14.76,26.06C1776.81,45233.8,1786.38,45232.54,1791.34,45229.2z"/>
	<path d="M1876.56,45250.3c-5.77-1.5-11.07-4.27-14.88-7.84l-3.11-2.89l-0.81,4.73l-0.81,4.84h-9.57h-9.69v-41.52v-41.51h10.38
		h10.38v26.87c0,23.64,0.23,27.21,2.08,30.79c4.04,7.73,16.72,11.53,24.56,7.38c6.23-3.11,6.8-6.57,6.8-37.36v-27.68h10.49h10.49
		l-0.46,30.9c-0.69,35.17-1.5,39.55-8.65,46.59c-2.42,2.3-5.77,4.73-7.38,5.3C1891.66,45250.76,1881.28,45251.45,1876.56,45250.3z"
		/>
	<path d="M1955.32,45249.95c-7.73-1.73-17.07-6.69-21.79-11.64l-3.57-3.69l6.34-6.23l6.23-6.11l4.61,4.15
		c11.99,10.84,29.18,7.84,31.94-5.77l0.69-3.46l-14.88-0.69c-20.87-0.8-29.06-4.27-33.9-14.3c-1.96-4.15-2.31-6.69-1.96-13.61
		c0.35-7.38,0.81-8.99,3.92-12.91c6-7.38,12.22-10.15,22.95-10.15c9.34,0,15.91,2.3,21.68,7.27c1.85,1.61,1.96,1.5,1.96-2.42v-4.27
		h9.23h9.23v30.9c0,31.95-0.58,36.44-4.96,43.02C1987.26,45248.57,1969.73,45253.18,1955.32,45249.95z M1979.53,45196.1
		c0-5.42-0.23-6-4.73-9.11c-2.54-1.96-7.5-4.04-11.07-4.84c-5.77-1.38-6.8-1.27-10.61,0.81c-7.96,4.27-7.5,12.57,1.04,16.84
		c3,1.5,6.8,2.07,14.76,2.07h10.61V45196.1z"/>
	<path d="M2241.88,45250.41c-5.3-1.38-10.03-4.15-13.72-8.07c-3.92-4.04-5.3-3.23-5.3,3.11v3.69h-9.8h-9.8v-41.52v-41.51h10.38H2224
		v24.33c0,27.33,0.58,29.86,7.84,35.4c3.23,2.42,5.3,3.12,9.92,3.12c3.23,0,6.92-0.23,8.07-0.58c1.96-0.46,2.54,0.81,4.84,9.8
		c1.5,5.77,2.31,10.73,1.85,11.19C2255.14,45250.64,2245.57,45251.34,2241.88,45250.41z"/>
	<path d="M2294,45250.3c-7.96-1.38-15.68-5.54-21.56-11.53c-20.76-20.64-14.41-57.89,11.76-69.88c6.46-2.88,8.53-3.34,18.8-3.34
		s12.34,0.35,18.45,3.23c9.11,4.27,16.95,11.99,20.87,20.87c2.77,6.11,3.23,8.42,3.23,17.99c0,14.64-2.88,22.26-11.88,31.25
		C2323.87,45248.68,2308.88,45252.95,2294,45250.3z M2315.33,45228.85c6.34-4.5,9.46-10.72,9.92-20.07
		c0.46-8.99-2.42-15.57-9.34-21.22c-7.84-6.34-21.91-5.19-28.71,2.42c-1.15,1.16-3.11,4.73-4.5,7.84
		c-5.88,13.14,0.92,29.98,13.84,34.13C2302.07,45233.8,2310.38,45232.42,2315.33,45228.85z"/>
	<path d="M2442.41,45249.95c-12.22-3.23-21.33-10.84-26.87-22.71c-4.27-9-4.84-26.41-1.27-35.86c9.11-24.56,40.94-33.9,66.19-19.61
		c8.3,4.61,8.65,5.65,4.04,12.34c-2.19,3-4.27,6-4.73,6.69c-0.46,0.69-2.54-0.11-5.19-1.96c-6.23-4.27-9.92-5.42-17.41-5.42
		c-11.88,0-22.03,6.92-25.02,17.07l-0.69,2.54h30.21h30.1l-0.46,10.15c-0.35,7.04-1.27,11.88-3.11,16.03
		c-3.11,7.15-11.76,15.68-19.26,18.91C2462.48,45250.99,2450.02,45251.91,2442.41,45249.95z M2463.29,45230.12
		c4.38-2.54,8.65-8.42,8.65-11.99c0-0.93-6.23-1.27-20.06-1.27h-20.18l1.15,3.23c1.5,4.27,7.84,10.5,12.11,11.77
		C2451.41,45233.69,2458.21,45233.11,2463.29,45230.12z"/>
	<path d="M2526.48,45250.3c-8.88-1.84-17.18-7.5-20.64-14.07c-0.92-1.73-1.61-6.34-1.61-10.26c0-13.61,6.57-19.95,27.45-26.41
		c16.72-5.07,19.6-8.54,12.92-15.22c-3.34-3.23-4.04-3.46-10.26-3c-6.11,0.46-10.72,2.42-18.68,8.07c-1.61,1.04-3,0.46-7.84-3.69
		c-3.23-2.77-5.88-5.65-5.88-6.46c0-1.84,6-6.8,11.42-9.69c6.34-3.23,17.64-5.07,26.18-4.27c9.11,0.92,17.76,5.3,22.83,11.53
		c3,3.69,3.57,5.65,3.92,12.11c0.92,15.11-4.5,20.76-25.95,27.45c-13.38,4.15-16.49,6.34-16.49,11.53c0,5.42,8.88,8.88,16.61,6.23
		c2.31-0.69,6.69-3.11,9.8-5.19l5.65-3.92l5.42,6.34l5.42,6.34l-2.42,2.65c-3.57,3.8-13.49,8.3-21.33,9.8
		C2535.24,45251.57,2533.4,45251.57,2526.48,45250.3z"/>
	<path d="M2601.44,45250.3c-9.57-1.96-18.34-8.3-20.99-15.34c-0.69-1.85-1.27-6.11-1.27-9.69c0-12.91,7.03-19.38,27.45-25.71
		c16.72-5.07,19.6-8.54,12.92-15.22c-3.34-3.23-4.04-3.46-10.26-3c-6.11,0.46-10.72,2.42-18.68,8.07c-1.61,1.04-3,0.46-7.84-3.69
		c-3.23-2.77-5.88-5.65-5.88-6.46c0-1.84,6-6.8,11.42-9.69c10.49-5.3,28.48-5.88,38.63-1.04c5.54,2.54,11.65,8.65,13.49,13.38
		c1.61,4.15,1.27,14.88-0.58,19.38c-2.54,6-9.92,10.49-24.56,15.11c-13.38,4.15-16.49,6.34-16.49,11.53c0,5.42,8.88,8.88,16.61,6.23
		c2.31-0.69,6.69-3.11,9.8-5.19l5.65-3.92l5.42,6.34l5.42,6.34l-2.42,2.65c-3.57,3.8-13.49,8.3-21.33,9.8
		C2610.2,45251.57,2608.35,45251.57,2601.44,45250.3z"/>
	<path d="M2731.17,45250.3c-7.15-1.27-18.57-7.5-22.83-12.34c-1.96-2.19-4.84-6.57-6.69-9.92c-2.88-5.54-3.11-6.92-3.11-19.83
		c0-13.03,0.23-14.18,3.34-20.53c11.42-22.49,42.09-29.75,63.77-15.11c21.68,14.76,23.64,49.82,3.69,67.8
		C2759.88,45248.8,2744.77,45252.83,2731.17,45250.3z M2748.46,45231.27c9.23-3.92,14.07-11.76,14.07-23.06
		c0-7.96-2.65-14.64-7.61-19.26c-13.03-12.11-33.9-3.69-36.9,14.88C2715.14,45222.27,2732.44,45237.84,2748.46,45231.27z"/>
	<path d="M2839.22,45250.64c-6.34-1.39-10.38-3.23-14.99-6.8l-5.19-3.92v4.61v4.61h-9.8h-9.8v-41.52v-41.51h9.69h9.8l0.35,27.56
		c0.35,25.83,0.46,27.79,2.77,30.79c4.15,5.65,8.07,7.73,15.22,8.3c6.34,0.46,7.15,0.23,10.72-3l3.92-3.46l0.35-30.1l0.35-30.1
		h10.38h10.38l-0.35,32.05c-0.35,31.83-0.35,31.95-3.46,38.52c-2.08,4.5-4.38,7.5-7.5,9.46
		C2855.71,45250.3,2846.14,45252.26,2839.22,45250.64z"/>
	<path d="M2917.98,45250.3c-7.73-1.38-16.84-5.88-22.6-11.07l-4.96-4.5l6.34-6.34l6.46-6.23l3.11,3
		c12.34,11.77,31.25,9.46,33.44-4.15l0.69-4.15h-11.07c-28.6,0-41.17-9.11-39.78-28.83c0.92-12.92,10.38-21.68,24.45-22.72
		c8.07-0.69,13.95,0.69,20.53,4.96c2.42,1.5,4.61,2.77,4.96,2.77s0.58-1.5,0.58-3.46v-3.46h9.23h9.23v32.63
		c0,29.18-0.23,32.98-2.19,37.13c-1.15,2.54-3.34,5.77-4.84,7.15C2944.73,45249.26,2929.86,45252.49,2917.98,45250.3z
		 M2940.12,45196.33c0-6.11-1.85-8.65-8.65-12.11c-11.19-5.54-22.49-2.42-22.49,6.23c0,8.53,5.07,11.3,20.53,11.41h10.61V45196.33z"
		/>
	<path d="M3209.27,45250.3c-22.95-4.84-37.36-29.87-31.14-54.2c3.46-13.38,10.15-21.22,23.52-27.45c5.88-2.77,7.84-3.11,18.68-3
		c9.69,0,13.26,0.46,18.1,2.54c7.03,2.88,15.34,8.19,15.34,9.69c0,1.15-8.99,13.61-9.92,13.61c-0.35,0-2.31-1.27-4.27-2.65
		c-2.08-1.5-5.42-3.46-7.5-4.27c-5.19-1.96-18.57-0.92-23.41,1.84c-4.61,2.77-9.92,9.23-10.84,13.49l-0.81,3.11h30.1h30.1v6.69
		c0,23.41-14.3,39.9-35.75,41.17C3217.34,45251.11,3211.81,45250.88,3209.27,45250.3z M3229.22,45230c3.69-2.77,6.8-6.92,7.84-10.49
		l0.69-2.65h-20.18c-11.19,0-20.3,0.34-20.3,0.92c0.12,3.11,5.88,10.26,10.38,12.68C3214.11,45233.8,3224.26,45233.69,3229.22,45230
		z"/>
	<path d="M3386.05,45250.3c-6.69-1.73-14.76-6.23-19.72-11.19c-13.26-13.14-16.03-38.05-6.11-54.66
		c11.42-18.91,38.52-25.02,60.77-13.61c11.53,6,11.42,5.77,6.23,13.14c-5.3,7.84-5.88,8.19-8.3,6c-6.69-6.11-21.33-8.42-29.98-4.73
		c-4.96,2.07-10.15,6.69-12.45,11.07c-3.57,6.92-4.5,6.69,28.37,6.69h29.98v6.11c0,13.03-5.19,26.06-12.92,32.63
		C3412.8,45249.38,3397.35,45253.06,3386.05,45250.3z M3404.04,45231.38c4.73-1.96,8.65-6.23,10.03-10.84l1.04-3.69h-20.18
		c-22.14,0-22.14,0-17.41,7.04C3382.59,45231.62,3395.16,45235.19,3404.04,45231.38z"/>
	<path d="M3517.86,45249.95c-14.3-3.23-24.91-12.45-29.98-25.83c-2.08-5.65-2.42-8.42-2.08-18.22c0.35-9.8,0.92-12.45,3.81-18.22
		c11.19-22.49,41.98-29.75,63.65-15.11c21.56,14.64,23.76,49.47,4.15,67.34C3547.26,45249.14,3531.81,45253.18,3517.86,45249.95z
		 M3536.08,45231.27c5.65-2.42,9.34-6,11.88-11.53c2.88-6.11,2.88-16.95,0-23.06c-9.8-21.22-38.75-16.03-42.21,7.73
		C3503.1,45222.73,3520.16,45237.84,3536.08,45231.27z"/>
	<path d="M3855.73,45249.72c-12.57-3.57-22.14-12.34-27.33-24.91c-1.61-3.8-2.08-8.19-2.08-17.76c0-11.54,0.23-13.26,3.23-19.26
		c4.04-8.19,12.68-16.14,21.33-19.49c5.19-2.07,8.99-2.65,18.1-2.65c12.92,0,20.41,2.19,29.29,8.65l4.84,3.46l-4.84,6.8
		c-2.65,3.8-4.96,6.92-5.19,6.92c-0.12,0-3-1.73-6.34-3.69c-4.84-3.12-7.38-3.81-13.84-4.15c-12.8-0.81-22.49,5.07-26.18,15.68
		l-1.27,3.69h30.1h29.98l-0.46,10.73c-0.46,12.34-3.23,19.26-10.49,26.52C3885.25,45249.61,3869.34,45253.41,3855.73,45249.72z
		 M3876.49,45230.81c4.38-2.31,9.23-8.42,9.23-11.76c0-2.08-1.27-2.19-19.6-2.19c-21.68,0-21.68,0-16.95,7.04
		C3854.47,45231.96,3867.96,45235.42,3876.49,45230.81z"/>
	<path d="M3960.09,45250.41c-5.54-1.38-11.88-4.73-15.57-8.19l-3.46-3.23v5.07v5.07h-9.8h-9.8v-41.52v-41.51h9.69h9.8l0.35,26.87
		c0.35,24.33,0.58,27.1,2.65,30.68c3.34,5.65,7.73,8.42,14.3,9.11c7.27,0.69,11.76-1.15,14.65-5.88c1.96-3.34,2.19-6.46,2.54-32.17
		l0.35-28.6h9.8h9.69v30.33c0,33.32-0.81,38.98-6.57,45.89c-1.73,2.07-5.3,4.61-7.84,5.77
		C3975.2,45250.53,3965.05,45251.68,3960.09,45250.41z"/>
	<path d="M3618.41,45247.99c-2.77-1.27-6.57-3.35-8.42-4.73l-3.34-2.3v4.04v4.15h-9.8h-9.8v-58.23v-58.24h9.8h9.8v21.57v21.45
		l2.65-2.42c3.92-3.69,13.15-7.38,20.41-7.96c23.87-2.19,41.74,18.57,40.01,46.47c-0.69,12.57-4.84,21.68-13.03,29.18
		c-3.46,3.23-8.53,6.46-11.53,7.5C3637.44,45251.11,3624.64,45250.88,3618.41,45247.99z M3640.44,45228.85
		c6.69-4.38,10.49-13.49,9.69-23.06c-1.15-15.34-12.45-24.56-26.75-21.91c-5.19,1.04-11.88,6.8-14.53,12.8
		c-4.38,9.57-1.96,23.75,5.19,30.44C3620.83,45233.57,3632.25,45234.27,3640.44,45228.85z"/>
	<path d="M3717.93,45248.11c-2.54-1.15-6.34-3.46-8.3-5.19l-3.81-3.23v4.73v4.73h-10.38h-10.38v-41.52v-41.51h10.38h10.38v26.98
		c0,25.95,0.12,26.98,2.65,30.67c5.42,7.96,13.15,10.84,20.64,7.73c7.84-3.23,8.42-5.77,8.76-37.36l0.35-28.02h9.8h9.69v25.14
		c0,13.72,0.58,26.98,1.15,29.29c1.5,5.07,6.46,9.57,12.8,11.53c3.81,1.04,5.65,1.04,9.46-0.35c8.3-2.88,8.88-5.07,8.88-37.59
		v-28.02h10.49h10.49l-0.46,32.05l-0.35,31.95l-3.11,6.34c-4.96,10.15-11.76,13.84-25.02,13.84c-9.11,0-15.22-2.54-22.37-9.11
		l-5.07-4.73l-3,4.5c-4.15,6.34-11.07,9.34-21.1,9.34C3725.31,45250.3,3720.93,45249.49,3717.93,45248.11z"/>
	<path d="M1372.97,45218.7c0-32.4,0.46-35.98,6-43.47c9.11-12.34,30.56-13.61,43.47-2.65l4.73,4.15v-5.3v-5.3h9.8h9.8v41.51v41.52
		h-9.8h-9.8v-26.18c0-23.98-0.23-26.52-2.42-31.02c-4.27-8.88-16.49-12.22-24.79-6.8c-1.61,1.04-3.92,4.04-5.19,6.69
		c-1.85,4.27-2.19,7.84-2.19,31.13v26.18h-9.8h-9.8V45218.7z"/>
	<path d="M1698.16,45207.63v-41.51h10.38h10.38v41.51v41.52h-10.38h-10.38V45207.63z"/>
	<path d="M2659.9,45207.63v-41.51h9.8h9.8v41.51v41.52h-9.8h-9.8V45207.63z"/>
	<path d="M3263.01,45248.8c0-0.34,7.73-18.91,17.18-41.28l17.18-40.82h7.73h7.61l13.84,31.14c7.61,17.18,15.91,35.75,18.34,41.28
		l4.5,10.15l-11.07-0.34l-11.07-0.35l-10.61-27.1c-8.19-20.53-10.96-26.52-11.65-24.79c-0.46,1.27-5.19,13.49-10.38,27.1
		l-9.46,24.79l-11.07,0.35C3267.97,45249.03,3263.01,45249.03,3263.01,45248.8z"/>
</g>
</svg>
